<svg width="48" height="48" viewBox="0 0 48 48" fill="none" xmlns="http://www.w3.org/2000/svg">
<path d="M20 24.6667C20 24.0467 20 23.7367 20.0681 23.4824C20.2531 22.7922 20.7922 22.2531 21.4824 22.0681C21.7367 22 22.0467 22 22.6667 22H25.3333C25.9533 22 26.2633 22 26.5176 22.0681C27.2078 22.2531 27.7469 22.7922 27.9319 23.4824C28 23.7367 28 24.0467 28 24.6667V26C28 28.2091 26.2091 30 24 30C21.7909 30 20 28.2091 20 26V24.6667Z" stroke="#1C3F3A" stroke-width="2" stroke-linecap="round" stroke-linejoin="round"/>
<path d="M27.6031 26C28.2263 25.8189 28.9333 25.6009 29.7601 25.3459L38.1024 22.7733C41.0715 21.8576 42.5247 20.262 42.8409 17.4995C42.9823 16.264 43.053 15.6462 42.9535 15.1404C42.6698 13.6973 41.4578 12.5271 39.8426 12.1368C39.2766 12 38.566 12 37.1449 12H10.8551C9.43401 12 8.72344 12 8.15742 12.1368C6.54221 12.5271 5.33021 13.6973 5.04645 15.1404C4.94702 15.6462 5.01772 16.264 5.15913 17.4995C5.47528 20.262 6.92849 21.8576 9.89763 22.7733L18.2399 25.3459C19.0667 25.6009 19.7737 25.8189 20.3969 26" stroke="#1C3F3A" stroke-width="2"/>
<path d="M6.92566 22L6.53317 26.3445C5.82962 34.1324 5.47784 38.0263 7.73468 40.5131C9.99152 43 13.877 43 21.648 43H26.352C34.123 43 38.0085 43 40.2653 40.5131C42.5222 38.0263 42.1704 34.1324 41.4668 26.3445L41.0743 22" stroke="#1C3F3A" stroke-width="2" stroke-linecap="round" stroke-linejoin="round"/>
<path d="M31 11L30.8455 10.4702C30.0754 7.8301 29.6904 6.51006 28.7738 5.75503C27.8572 5 26.6397 5 24.2047 5H23.7953C21.3603 5 20.1428 5 19.2262 5.75503C18.3096 6.51006 17.9246 7.8301 17.1545 10.4702L17 11" stroke="#1C3F3A" stroke-width="2"/>
</svg>
