<svg width="33" height="32" viewBox="0 0 33 32" fill="none" xmlns="http://www.w3.org/2000/svg">
<path d="M10.6673 14.6667H6.80065C6.05391 14.6667 5.68055 14.6667 5.39533 14.812C5.14445 14.9398 4.94047 15.1438 4.81264 15.3947C4.66732 15.6799 4.66732 16.0533 4.66732 16.8V28M22.6673 14.6667H26.534C27.2807 14.6667 27.6541 14.6667 27.9393 14.812C28.1902 14.9398 28.3942 15.1438 28.522 15.3947C28.6673 15.6799 28.6673 16.0533 28.6673 16.8V28M22.6673 28V8.26667C22.6673 6.77319 22.6673 6.02646 22.3767 5.45603C22.121 4.95426 21.7131 4.54631 21.2113 4.29065C20.6409 4 19.8941 4 18.4007 4H14.934C13.4405 4 12.6938 4 12.1233 4.29065C11.6216 4.54631 11.2136 4.95426 10.958 5.45603C10.6673 6.02646 10.6673 6.77319 10.6673 8.26667V28M30.0007 28H3.33398M15.334 9.33333H18.0007M15.334 14.6667H18.0007M15.334 20H18.0007" stroke="white" stroke-width="1.5" stroke-linecap="round" stroke-linejoin="round"/>
</svg>
