<svg width="38" height="38" viewBox="0 0 38 38" fill="none" xmlns="http://www.w3.org/2000/svg">
<path d="M14.6503 3.10198C13.5762 4.0173 12.2408 4.57046 10.8341 4.68272C7.5514 4.94468 4.94468 7.5514 4.68272 10.8341C4.57046 12.2408 4.0173 13.5762 3.10198 14.6503C0.966005 17.1568 0.966005 20.8432 3.10198 23.3497C4.0173 24.4237 4.57046 25.7592 4.68272 27.1659C4.94468 30.4486 7.5514 33.0553 10.8341 33.3173C12.2408 33.4295 13.5763 33.9827 14.6503 34.898C17.1568 37.034 20.8432 37.034 23.3497 34.898C24.4237 33.9827 25.7592 33.4295 27.1659 33.3173C30.4486 33.0553 33.0553 30.4486 33.3173 27.1659C33.4295 25.7592 33.9827 24.4237 34.898 23.3497C37.034 20.8432 37.034 17.1568 34.898 14.6503C33.9827 13.5763 33.4295 12.2408 33.3173 10.8341C33.0553 7.5514 30.4486 4.94468 27.1659 4.68272C25.7592 4.57046 24.4237 4.0173 23.3497 3.10198C20.8432 0.966005 17.1568 0.966005 14.6503 3.10198Z" fill="#28285B"/>
<path d="M13.75 19L17.25 22.5L25.125 14.625M10.8341 4.68272C12.2408 4.57046 13.5762 4.0173 14.6503 3.10198C17.1568 0.966005 20.8432 0.966005 23.3497 3.10198C24.4237 4.0173 25.7592 4.57046 27.1659 4.68272C30.4486 4.94468 33.0553 7.5514 33.3173 10.8341C33.4295 12.2408 33.9827 13.5763 34.898 14.6503C37.034 17.1568 37.034 20.8432 34.898 23.3497C33.9827 24.4237 33.4295 25.7592 33.3173 27.1659C33.0553 30.4486 30.4486 33.0553 27.1659 33.3173C25.7592 33.4295 24.4237 33.9827 23.3497 34.898C20.8432 37.034 17.1568 37.034 14.6503 34.898C13.5763 33.9827 12.2408 33.4295 10.8341 33.3173C7.5514 33.0553 4.94468 30.4486 4.68272 27.1659C4.57046 25.7592 4.0173 24.4237 3.10198 23.3497C0.966005 20.8432 0.966005 17.1568 3.10198 14.6503C4.0173 13.5762 4.57046 12.2408 4.68272 10.8341C4.94468 7.5514 7.5514 4.94468 10.8341 4.68272Z" stroke="#9AD8C6" stroke-width="1.5" stroke-linecap="round" stroke-linejoin="round"/>
</svg>
