<svg width="42" height="42" viewBox="0 0 42 42" fill="none" xmlns="http://www.w3.org/2000/svg">
<path d="M16.6503 5.10198C15.5762 6.0173 14.2408 6.57046 12.8341 6.68272C9.5514 6.94468 6.94468 9.5514 6.68272 12.8341C6.57046 14.2408 6.0173 15.5762 5.10198 16.6503C2.96601 19.1568 2.96601 22.8432 5.10198 25.3497C6.0173 26.4237 6.57046 27.7592 6.68272 29.1659C6.94468 32.4486 9.5514 35.0553 12.8341 35.3173C14.2408 35.4295 15.5763 35.9827 16.6503 36.898C19.1568 39.034 22.8432 39.034 25.3497 36.898C26.4237 35.9827 27.7592 35.4295 29.1659 35.3173C32.4486 35.0553 35.0553 32.4486 35.3173 29.1659C35.4295 27.7592 35.9827 26.4237 36.898 25.3497C39.034 22.8432 39.034 19.1568 36.898 16.6503C35.9827 15.5763 35.4295 14.2408 35.3173 12.8341C35.0553 9.5514 32.4486 6.94468 29.1659 6.68272C27.7592 6.57046 26.4237 6.0173 25.3497 5.10198C22.8432 2.96601 19.1568 2.96601 16.6503 5.10198Z" fill="#28285B"/>
<path d="M15.75 21L19.25 24.5L27.125 16.625M12.8341 6.68272C14.2408 6.57046 15.5762 6.0173 16.6503 5.10198C19.1568 2.96601 22.8432 2.96601 25.3497 5.10198C26.4237 6.0173 27.7592 6.57046 29.1659 6.68272C32.4486 6.94468 35.0553 9.5514 35.3173 12.8341C35.4295 14.2408 35.9827 15.5763 36.898 16.6503C39.034 19.1568 39.034 22.8432 36.898 25.3497C35.9827 26.4237 35.4295 27.7592 35.3173 29.1659C35.0553 32.4486 32.4486 35.0553 29.1659 35.3173C27.7592 35.4295 26.4237 35.9827 25.3497 36.898C22.8432 39.034 19.1568 39.034 16.6503 36.898C15.5763 35.9827 14.2408 35.4295 12.8341 35.3173C9.5514 35.0553 6.94468 32.4486 6.68272 29.1659C6.57046 27.7592 6.0173 26.4237 5.10198 25.3497C2.96601 22.8432 2.96601 19.1568 5.10198 16.6503C6.0173 15.5762 6.57046 14.2408 6.68272 12.8341C6.94468 9.5514 9.5514 6.94468 12.8341 6.68272Z" stroke="#FEDC6E" stroke-width="1.5" stroke-linecap="round" stroke-linejoin="round"/>
</svg>
