<svg width="33" height="32" viewBox="0 0 33 32" fill="none" xmlns="http://www.w3.org/2000/svg">
<path d="M17.6667 6.66667C17.6667 8.13943 14.3834 9.33333 10.3333 9.33333C6.28325 9.33333 3 8.13943 3 6.66667M17.6667 6.66667C17.6667 5.19391 14.3834 4 10.3333 4C6.28325 4 3 5.19391 3 6.66667M17.6667 6.66667V12.6095C16.038 13.0986 15 13.8386 15 14.6667M3 6.66667V22.6667C3 24.1394 6.28325 25.3333 10.3333 25.3333C12.1062 25.3333 13.7321 25.1046 15 24.7238V14.6667M3 12C3 13.4728 6.28325 14.6667 10.3333 14.6667C12.1062 14.6667 13.7321 14.4379 15 14.0571M3 17.3333C3 18.8061 6.28325 20 10.3333 20C12.1062 20 13.7321 19.7712 15 19.3905M29.6667 14.6667C29.6667 16.1394 26.3834 17.3333 22.3333 17.3333C18.2832 17.3333 15 16.1394 15 14.6667M29.6667 14.6667C29.6667 13.1939 26.3834 12 22.3333 12C18.2832 12 15 13.1939 15 14.6667M29.6667 14.6667V25.3333C29.6667 26.8061 26.3834 28 22.3333 28C18.2832 28 15 26.8061 15 25.3333V14.6667M29.6667 20C29.6667 21.4728 26.3834 22.6667 22.3333 22.6667C18.2832 22.6667 15 21.4728 15 20" stroke="white" stroke-width="1.5" stroke-linecap="round" stroke-linejoin="round"/>
</svg>
