<svg width="33" height="32" viewBox="0 0 33 32" fill="none" xmlns="http://www.w3.org/2000/svg">
<path d="M29.6667 15.9996C29.6667 8.6358 23.6971 2.66626 16.3333 2.66626C8.96954 2.66626 3 8.6358 3 15.9996C3 23.3634 8.96954 29.3329 16.3333 29.3329C23.6971 29.3329 29.6667 23.3634 29.6667 15.9996Z" stroke="#FC6A2B" stroke-width="2"/>
<path d="M16.8688 11.0636L20.762 9.76588C21.9437 9.37199 22.5345 9.17505 22.8464 9.48693C23.1583 9.7988 22.9613 10.3896 22.5675 11.5713L21.2697 15.4645C20.5985 17.4781 20.2629 18.4849 19.5409 19.2069C18.8189 19.9289 17.8121 20.2645 15.7985 20.9357L11.9053 22.2335C10.7236 22.6274 10.1328 22.8243 9.82091 22.5124C9.50904 22.2005 9.70598 21.6097 10.0999 20.4281L11.3976 16.5348C12.0688 14.5212 12.4044 13.5144 13.1264 12.7924C13.8484 12.0704 14.8552 11.7348 16.8688 11.0636Z" stroke="#FC6A2B" stroke-width="2" stroke-linecap="round" stroke-linejoin="round"/>
<path d="M16.333 15.9995L16.3245 16.008" stroke="#FC6A2B" stroke-width="2.66667" stroke-linecap="round" stroke-linejoin="round"/>
</svg>
