<svg width="48" height="48" viewBox="0 0 48 48" fill="none" xmlns="http://www.w3.org/2000/svg">
<g clip-path="url(#clip0_4289_2150)">
<path d="M27.5728 31.4519H27.9988C27.9988 31.4519 34.9048 31.4659 34.9988 31.4519L39.3588 30.6519C39.8193 30.5676 40.2356 30.3245 40.5353 29.9649C40.8349 29.6053 40.999 29.152 40.9988 28.6839V17.8159C40.9988 17.4138 40.8776 17.0211 40.6511 16.6889C40.4246 16.3568 40.1032 16.1006 39.7288 15.9539L29.6388 11.9999C29.1415 11.8053 28.6012 11.747 28.0739 11.8311C27.5465 11.9151 27.0511 12.1384 26.6388 12.4779L19.3088 18.5079C19.0308 18.7355 18.8412 19.0533 18.7731 19.4061C18.7049 19.7589 18.7624 20.1245 18.9356 20.4393C19.1088 20.7541 19.3868 20.9984 19.7213 21.1296C20.0558 21.2609 20.4257 21.2709 20.7668 21.1579L28.9988 18.4519" stroke="#3F3D2E" stroke-width="2.4" stroke-linecap="round" stroke-linejoin="round"/>
<path d="M7.00098 27.4524L12.201 28.4524L19.371 35.6224C19.5973 35.8491 19.8747 36.0181 20.18 36.1152C20.4852 36.2123 20.8093 36.2346 21.125 36.1804L22.125 36.0064C22.5323 35.9363 22.9079 35.7418 23.2001 35.4496C23.4924 35.1573 23.6869 34.7817 23.757 34.3744L24.105 32.3484L27.523 31.7584L28.113 28.3424L31.531 27.7524L32.119 24.3344L26.919 19.1344" stroke="#3F3D2E" stroke-width="2.4" stroke-linecap="round" stroke-linejoin="round"/>
<path d="M23.141 15.3567L20.183 12.4007C19.9033 12.1201 19.5467 11.9289 19.1582 11.8513C18.7697 11.7736 18.367 11.8131 18.001 11.9647L12.001 14.4527L7.00098 15.4527" stroke="#3F3D2E" stroke-width="2.4" stroke-linecap="round" stroke-linejoin="round"/>
<path d="M1.00098 12.4524H5.00098C5.53141 12.4524 6.04012 12.6631 6.41519 13.0382C6.79026 13.4133 7.00098 13.922 7.00098 14.4524V28.4524C7.00098 28.9828 6.79026 29.4915 6.41519 29.8666C6.04012 30.2417 5.53141 30.4524 5.00098 30.4524H1.00098V12.4524Z" stroke="#3F3D2E" stroke-width="2.4" stroke-linecap="round" stroke-linejoin="round"/>
<path d="M42.999 14.4515H46.999V32.4515H42.999C42.4686 32.4515 41.9599 32.2408 41.5848 31.8658C41.2097 31.4907 40.999 30.982 40.999 30.4515V16.4515C40.999 15.9211 41.2097 15.4124 41.5848 15.0373C41.9599 14.6623 42.4686 14.4515 42.999 14.4515Z" stroke="#3F3D2E" stroke-width="2.4" stroke-linecap="round" stroke-linejoin="round"/>
</g>
<defs>
<clipPath id="clip0_4289_2150">
<rect width="48" height="48" fill="white"/>
</clipPath>
</defs>
</svg>
