<svg width="42" height="42" viewBox="0 0 42 42" fill="none" xmlns="http://www.w3.org/2000/svg">
<path d="M21 38.5C30.665 38.5 38.5 30.665 38.5 21C38.5 11.335 30.665 3.5 21 3.5C11.335 3.5 3.5 11.335 3.5 21C3.5 30.665 11.335 38.5 21 38.5Z" fill="#28285B"/>
<path fill-rule="evenodd" clip-rule="evenodd" d="M20.994 15.8688C19.2446 13.8236 16.3273 13.2734 14.1354 15.1463C11.9434 17.0191 11.6348 20.1504 13.3562 22.3654C14.4587 23.7841 17.2823 26.4149 19.1699 28.1231C19.7972 28.6908 20.1108 28.9746 20.4865 29.0885C20.8095 29.1863 21.1785 29.1863 21.5015 29.0885C21.8772 28.9746 22.1908 28.6908 22.8181 28.1231C24.7057 26.4149 27.5293 23.7841 28.6318 22.3654C30.3532 20.1504 30.0823 16.9994 27.8527 15.1463C25.6231 13.2931 22.7434 13.8236 20.994 15.8688Z" fill="#28285B"/>
<path d="M21 38.5C30.665 38.5 38.5 30.665 38.5 21C38.5 11.335 30.665 3.5 21 3.5C11.335 3.5 3.5 11.335 3.5 21C3.5 30.665 11.335 38.5 21 38.5Z" stroke="#FF8283" stroke-width="1.5" stroke-linecap="round" stroke-linejoin="round"/>
<path fill-rule="evenodd" clip-rule="evenodd" d="M20.994 15.8688C19.2446 13.8236 16.3273 13.2734 14.1354 15.1463C11.9434 17.0191 11.6348 20.1504 13.3562 22.3654C14.4587 23.7841 17.2823 26.4149 19.1699 28.1231C19.7972 28.6908 20.1108 28.9746 20.4865 29.0885C20.8095 29.1863 21.1785 29.1863 21.5015 29.0885C21.8772 28.9746 22.1908 28.6908 22.8181 28.1231C24.7057 26.4149 27.5293 23.7841 28.6318 22.3654C30.3532 20.1504 30.0823 16.9994 27.8527 15.1463C25.6231 13.2931 22.7434 13.8236 20.994 15.8688Z" stroke="#FF8283" stroke-width="1.5" stroke-linecap="round" stroke-linejoin="round"/>
</svg>
