<svg width="29" height="26" viewBox="0 0 29 26" fill="none" xmlns="http://www.w3.org/2000/svg">
<path d="M8.33333 11.6667H4.46667C3.71993 11.6667 3.34656 11.6667 3.06135 11.812C2.81046 11.9398 2.60649 12.1438 2.47866 12.3947C2.33333 12.6799 2.33333 13.0533 2.33333 13.8V25M20.3333 11.6667H24.2C24.9467 11.6667 25.3201 11.6667 25.6053 11.812C25.8562 11.9398 26.0602 12.1438 26.188 12.3947C26.3333 12.6799 26.3333 13.0533 26.3333 13.8V25M20.3333 25V5.26667C20.3333 3.77319 20.3333 3.02646 20.0427 2.45603C19.787 1.95426 19.3791 1.54631 18.8773 1.29065C18.3069 1 17.5601 1 16.0667 1H12.6C11.1065 1 10.3598 1 9.78936 1.29065C9.28759 1.54631 8.87965 1.95426 8.62398 2.45603C8.33333 3.02646 8.33333 3.77319 8.33333 5.26667V25M27.6667 25H1M13 6.33333H15.6667M13 11.6667H15.6667M13 17H15.6667" stroke="white" stroke-width="1.5" stroke-linecap="round" stroke-linejoin="round"/>
</svg>
