<svg width="40" height="40" viewBox="0 0 40 40" fill="none" xmlns="http://www.w3.org/2000/svg">
<path d="M33.3591 3.33264C31.5034 3.33264 29.999 7.80979 29.999 13.3326H33.3591C34.9784 13.3326 35.7881 13.3326 36.2893 12.7736C36.7905 12.2145 36.7032 11.4782 36.5287 10.0057C36.0681 6.11836 34.8229 3.33264 33.3591 3.33264Z" stroke="#1C3F3A" stroke-width="2.5"/>
<path d="M29.9992 13.4231V31.0756C29.9992 33.5951 29.9992 34.8548 29.2293 35.3507C27.9711 36.1611 26.0259 34.4617 25.0477 33.8448C24.2394 33.335 23.8353 33.0801 23.3867 33.0654C22.9021 33.0495 22.4907 33.2939 21.6173 33.8448L18.4325 35.8533C17.5734 36.3951 17.1438 36.666 16.6659 36.666C16.1879 36.666 15.7583 36.3951 14.8992 35.8533L11.7144 33.8448C10.9061 33.335 10.502 33.0801 10.0534 33.0654C9.56872 33.0495 9.15739 33.2939 8.28398 33.8448C7.30577 34.4617 5.36064 36.1611 4.10244 35.3507C3.33252 34.8548 3.33252 33.5951 3.33252 31.0756V13.4231C3.33252 8.6664 3.33252 6.28806 4.79699 4.81035C6.26145 3.33264 8.61847 3.33264 13.3325 3.33264H33.3325" stroke="#1C3F3A" stroke-width="2.5" stroke-linecap="round" stroke-linejoin="round"/>
<path d="M16.6659 13.3327C14.8249 13.3327 13.3325 14.452 13.3325 15.8327C13.3325 17.2134 14.8249 18.3327 16.6659 18.3327C18.5068 18.3327 19.9992 19.452 19.9992 20.8327C19.9992 22.2134 18.5068 23.3327 16.6659 23.3327M16.6659 13.3327C18.1172 13.3327 19.3519 14.0284 19.8095 14.9993M16.6659 13.3327V11.666M16.6659 23.3327C15.2145 23.3327 13.9798 22.637 13.5222 21.666M16.6659 23.3327V24.9993" stroke="#1C3F3A" stroke-width="2.5" stroke-linecap="round"/>
</svg>
