<svg width="33" height="32" viewBox="0 0 33 32" fill="none" xmlns="http://www.w3.org/2000/svg">
<path d="M27.0003 19.3337V8.66707C27.0003 6.15292 27.0003 4.89584 26.2193 4.11479C25.4382 3.33374 24.1812 3.33374 21.667 3.33374H11.0003C8.48617 3.33374 7.22909 3.33374 6.44804 4.11479C5.66699 4.89584 5.66699 6.15292 5.66699 8.66707V19.3337" stroke="#FC6A2B" stroke-width="2" stroke-linecap="round" stroke-linejoin="round"/>
<path d="M4.99682 20.6877L5.69271 19.3337H26.9357L27.6697 20.6877C29.5936 24.2363 30.0728 26.0107 29.3415 27.3389C28.6103 28.6671 26.6715 28.6671 22.7939 28.6671L9.87283 28.6671C5.99522 28.6671 4.05642 28.6671 3.32516 27.3389C2.5939 26.0107 3.07299 24.2363 4.99682 20.6877Z" stroke="#FC6A2B" stroke-width="2" stroke-linecap="round" stroke-linejoin="round"/>
<path d="M16.333 14.667H16.345" stroke="#FC6A2B" stroke-width="2" stroke-linecap="round" stroke-linejoin="round"/>
<path d="M16.333 11.3337L16.333 8.00041" stroke="#FC6A2B" stroke-width="2" stroke-linecap="round" stroke-linejoin="round"/>
</svg>
