<svg width="48" height="48" viewBox="0 0 48 48" fill="none" xmlns="http://www.w3.org/2000/svg">
<path d="M30.6035 40.8018L17.4035 40.8018" stroke="#3F3D2E" stroke-width="3" stroke-linecap="round"/>
<path d="M24 40.1992L24 29.3992" stroke="#3F3D2E" stroke-width="3" stroke-linecap="round"/>
<path d="M8.39844 8.99941C8.39844 8.66804 8.66707 8.39941 8.99844 8.39941H23.9984H38.9984C39.3298 8.39941 39.5984 8.66805 39.5984 8.99941V18.5994V28.1994C39.5984 28.5308 39.3298 28.7994 38.9984 28.7994H23.9984H8.99844C8.66707 28.7994 8.39844 28.5308 8.39844 28.1994V18.5994V8.99941Z" stroke="#3F3D2E" stroke-width="3"/>
<path d="M15.1499 20.5483C15.1499 20.5483 18.8833 22.5269 23.2499 20.9984C29.6482 18.7587 31.8454 15.0105 31.8454 15.0105M31.8454 15.0105L25.4999 14.3983M31.8454 15.0105L32.3999 21.7484" stroke="#3F3D2E" stroke-width="3" stroke-linecap="round"/>
</svg>
