<svg width="39" height="39" viewBox="0 0 39 39" fill="none" xmlns="http://www.w3.org/2000/svg">
<path fill-rule="evenodd" clip-rule="evenodd" d="M26.85 21H21V26.85C23.9387 26.2535 26.2535 23.9387 26.85 21ZM21 29.8937C25.5985 29.2359 29.2359 25.5985 29.8937 21H35.9327C35.2194 28.9157 28.9157 35.2194 21 35.9327V29.8937ZM18 26.85V21H12.15C12.7466 23.9387 15.0613 26.2535 18 26.85ZM9.10634 21C9.7641 25.5985 13.4015 29.2359 18 29.8937V35.9327C10.0843 35.2194 3.78059 28.9157 3.06727 21H9.10634ZM0.0568344 21C0.0191744 20.5049 0 20.0047 0 19.5C0 18.9953 0.0191744 18.4951 0.0568344 18C0.785112 8.42639 8.42639 0.785112 18 0.0568344C18.4951 0.0191744 18.9953 0 19.5 0C20.0047 0 20.5049 0.0191744 21 0.0568344C30.5736 0.785111 38.2149 8.42639 38.9432 18C38.9808 18.4951 39 18.9953 39 19.5C39 20.0047 38.9808 20.5049 38.9432 21C38.2149 30.5736 30.5736 38.2149 21 38.9432C20.5049 38.9808 20.0047 39 19.5 39C18.9953 39 18.4951 38.9808 18 38.9432C8.42639 38.2149 0.785111 30.5736 0.0568344 21ZM35.9327 18H29.8937C29.2359 13.4015 25.5985 9.7641 21 9.10634V3.06727C28.9157 3.78059 35.2194 10.0843 35.9327 18ZM18 3.06727C10.0843 3.78059 3.78059 10.0843 3.06727 18H9.10634C9.7641 13.4015 13.4015 9.7641 18 9.10634V3.06727ZM18 12.15C15.0613 12.7466 12.7466 15.0613 12.15 18H18V12.15ZM21 18H26.85C26.2535 15.0613 23.9387 12.7466 21 12.15V18Z" fill="#3F3D2E"/>
</svg>
