<svg width="32" height="32" viewBox="0 0 32 32" fill="none" xmlns="http://www.w3.org/2000/svg">
<path d="M15.9993 29.3334C23.3631 29.3334 29.3327 23.3639 29.3327 16.0001C29.3327 8.63628 23.3631 2.66675 15.9993 2.66675C8.63555 2.66675 2.66602 8.63628 2.66602 16.0001C2.66602 23.3639 8.63555 29.3334 15.9993 29.3334Z" stroke="white" stroke-width="1.5" stroke-linecap="round" stroke-linejoin="round"/>
<path d="M18.4438 9.73342C18.4438 9.36005 18.4438 9.17336 18.3711 9.03075C18.3072 8.90531 18.2052 8.80333 18.0798 8.73941C17.9372 8.66675 17.7505 8.66675 17.3771 8.66675H14.6216C14.2482 8.66675 14.0615 8.66675 13.9189 8.73941C13.7935 8.80333 13.6915 8.90531 13.6276 9.03075C13.5549 9.17336 13.5549 9.36005 13.5549 9.73342V12.489C13.5549 12.8623 13.5549 13.049 13.4822 13.1916C13.4183 13.3171 13.3163 13.4191 13.1909 13.483C13.0483 13.5556 12.8616 13.5556 12.4882 13.5556H9.73268C9.35931 13.5556 9.17263 13.5556 9.03002 13.6283C8.90458 13.6922 8.80259 13.7942 8.73868 13.9196C8.66602 14.0623 8.66602 14.2489 8.66602 14.6223V17.3779C8.66602 17.7512 8.66602 17.9379 8.73868 18.0805C8.80259 18.206 8.90458 18.3079 9.03002 18.3719C9.17263 18.4445 9.35931 18.4445 9.73268 18.4445H12.4882C12.8616 18.4445 13.0483 18.4445 13.1909 18.5172C13.3163 18.5811 13.4183 18.6831 13.4822 18.8085C13.5549 18.9511 13.5549 19.1378 13.5549 19.5112V22.2667C13.5549 22.6401 13.5549 22.8268 13.6276 22.9694C13.6915 23.0949 13.7935 23.1968 13.9189 23.2608C14.0615 23.3334 14.2482 23.3334 14.6216 23.3334H17.3771C17.7505 23.3334 17.9372 23.3334 18.0798 23.2608C18.2052 23.1968 18.3072 23.0949 18.3711 22.9694C18.4438 22.8268 18.4438 22.6401 18.4438 22.2667V19.5112C18.4438 19.1378 18.4438 18.9511 18.5165 18.8085C18.5804 18.6831 18.6824 18.5811 18.8078 18.5172C18.9504 18.4445 19.1371 18.4445 19.5105 18.4445H22.266C22.6394 18.4445 22.8261 18.4445 22.9687 18.3719C23.0941 18.3079 23.1961 18.206 23.26 18.0805C23.3327 17.9379 23.3327 17.7512 23.3327 17.3779V14.6223C23.3327 14.2489 23.3327 14.0623 23.26 13.9196C23.1961 13.7942 23.0941 13.6922 22.9687 13.6283C22.8261 13.5556 22.6394 13.5556 22.266 13.5556H19.5105C19.1371 13.5556 18.9504 13.5556 18.8078 13.483C18.6824 13.4191 18.5804 13.3171 18.5165 13.1916C18.4438 13.049 18.4438 12.8623 18.4438 12.489V9.73342Z" stroke="white" stroke-width="1.5" stroke-linecap="round" stroke-linejoin="round"/>
</svg>
