<svg width="48" height="48" viewBox="0 0 48 48" fill="none" xmlns="http://www.w3.org/2000/svg">
<path d="M41.8855 33.6708C40.5728 25.7732 36.4864 19.8923 32.9339 16.438C31.9002 15.4328 31.3833 14.9303 30.2416 14.4651C29.0998 14 28.1184 14 26.1556 14H21.8444C19.8816 14 18.9002 14 17.7584 14.4651C16.6167 14.9303 16.0998 15.4328 15.0661 16.438C11.5136 19.8923 7.42721 25.7732 6.11453 33.6708C5.13786 39.5469 10.5585 44 16.6166 44H31.3834C37.4415 44 42.8621 39.5469 41.8855 33.6708Z" stroke="#1C3F3A" stroke-width="2" stroke-linecap="round"/>
<path d="M24.8261 22C24.8261 21.4477 24.3784 21 23.8261 21C23.2738 21 22.8261 21.4477 22.8261 22L24.8261 22ZM22.8261 36C22.8261 36.5523 23.2738 37 23.8261 37C24.3784 37 24.8261 36.5523 24.8261 36H22.8261ZM26.3694 25.6051C26.7036 26.0448 27.3309 26.1303 27.7706 25.7961C28.2103 25.4619 28.2958 24.8346 27.9616 24.3949L26.3694 25.6051ZM21.161 32.577C20.7494 32.2087 20.1172 32.2438 19.7489 32.6553C19.3806 33.0668 19.4156 33.699 19.8272 34.0673L21.161 32.577ZM23.8261 27.7987C22.4993 27.7987 21.7875 27.5861 21.4283 27.3441C21.1537 27.1591 21 26.9027 21 26.3789H19C19 27.4142 19.3681 28.3677 20.3109 29.0028C21.169 29.5809 22.3703 29.7987 23.8261 29.7987V27.7987ZM21 26.3789C21 25.9918 21.2105 25.5591 21.7144 25.1874C22.2179 24.8159 22.9612 24.5559 23.8261 24.5559V22.5559C22.5779 22.5559 21.4082 22.9278 20.5269 23.578C19.646 24.228 19 25.2069 19 26.3789H21ZM27 31.6217C27 32.2537 26.7391 32.6459 26.2626 32.9322C25.7254 33.2548 24.8878 33.4447 23.8261 33.4447V35.4447C25.0696 35.4447 26.3189 35.2314 27.2924 34.6466C28.3265 34.0255 29 33.0061 29 31.6217H27ZM23.8261 29.7987C25.161 29.7987 25.963 29.9999 26.4102 30.2916C26.7675 30.5246 27 30.8795 27 31.6217H29C29 30.3474 28.5369 29.2908 27.5028 28.6164C26.5587 28.0007 25.2738 27.7987 23.8261 27.7987V29.7987ZM24.8261 23.5559L24.8261 22L22.8261 22L22.8261 23.5559L24.8261 23.5559ZM22.8261 34.4447V36H24.8261V34.4447H22.8261ZM23.8261 24.5559C25.0173 24.5559 25.9418 25.0426 26.3694 25.6051L27.9616 24.3949C27.0791 23.2338 25.5036 22.5559 23.8261 22.5559V24.5559ZM23.8261 33.4447C22.6612 33.4447 21.7055 33.0644 21.161 32.577L19.8272 34.0673C20.8065 34.9438 22.2687 35.4447 23.8261 35.4447V33.4447Z" fill="#1C3F3A"/>
<path d="M14.5132 8.88574C14.1006 8.28517 13.5026 7.46999 14.738 7.28409C16.0078 7.09302 17.3264 7.96228 18.6171 7.94442C19.7847 7.92825 20.3796 7.41039 21.0178 6.67096C21.6899 5.89235 22.7305 4 24 4C25.2695 4 26.3101 5.89235 26.9822 6.67096C27.6204 7.41039 28.2153 7.92825 29.3829 7.94442C30.6736 7.96228 31.9922 7.09302 33.262 7.28409C34.4974 7.46999 33.8994 8.28517 33.4868 8.88573L31.6211 11.6013C30.823 12.7629 30.424 13.3437 29.5889 13.6719C28.7538 14 27.6747 14 25.5164 14H22.4836C20.3253 14 19.2462 14 18.4111 13.6719C17.576 13.3437 17.177 12.7629 16.3789 11.6013L14.5132 8.88574Z" stroke="#1C3F3A" stroke-width="2"/>
</svg>
