<svg width="33" height="32" viewBox="0 0 33 32" fill="none" xmlns="http://www.w3.org/2000/svg">
<path d="M16.667 29.3338C15.5761 29.3338 14.5339 28.8867 12.4496 27.9924C7.26118 25.7663 4.66699 24.6532 4.66699 22.7809L4.66699 10.3305M16.667 29.3338C17.7579 29.3338 18.8001 28.8867 20.8844 27.9924C26.0728 25.7663 28.667 24.6532 28.667 22.7809L28.667 10.3305M16.667 29.3338L16.667 16.2281M28.667 10.3305C28.667 11.1355 27.5982 11.6438 25.4607 12.6605L21.5658 14.513C19.1619 15.6564 17.9599 16.2281 16.667 16.2281M28.667 10.3305C28.667 9.5255 27.5982 9.01716 25.4607 8.00049M4.66699 10.3305C4.66699 11.1355 5.73575 11.6438 7.87328 12.6605L11.7682 14.513C14.1721 15.6564 15.374 16.2281 16.667 16.2281M4.66699 10.3305C4.66699 9.5255 5.73575 9.01716 7.87328 8.00049M9.1097 17.7485L11.7682 19.013" stroke="#FC6A2B" stroke-width="2" stroke-linecap="round" stroke-linejoin="round"/>
<path d="M16.6673 2.66699V5.33366M22.0007 4.00033L20.0007 6.66699M11.334 4.00033L13.334 6.66699" stroke="#FC6A2B" stroke-width="2" stroke-linecap="round"/>
</svg>
