<svg width="42" height="42" viewBox="0 0 42 42" fill="none" xmlns="http://www.w3.org/2000/svg">
<path d="M16.4418 33.8994L17.4646 36.1997C17.7686 36.8845 18.2648 37.4662 18.893 37.8745C19.5211 38.2829 20.2543 38.5001 21.0035 38.5C21.7527 38.5001 22.4858 38.2829 23.114 37.8745C23.7421 37.4662 24.2383 36.8845 24.5424 36.1997L25.5651 33.8994C25.9292 33.0832 26.5417 32.4028 27.3151 31.955C28.0935 31.506 28.994 31.3148 29.8876 31.4086L32.3901 31.675C33.1351 31.7538 33.8869 31.6148 34.5543 31.2748C35.2218 30.9349 35.7764 30.4086 36.1507 29.7597C36.5255 29.1113 36.7041 28.368 36.6647 27.62C36.6254 26.8721 36.3698 26.1517 35.929 25.5461L34.4474 23.5103C33.9198 22.78 33.6379 21.9009 33.6424 21C33.6422 20.1015 33.9267 19.2261 34.4551 18.4994L35.9368 16.4636C36.3776 15.8581 36.6332 15.1376 36.6725 14.3897C36.7119 13.6417 36.5333 12.8984 36.1585 12.25C35.7841 11.6012 35.2296 11.0749 34.5621 10.7349C33.8946 10.3949 33.1428 10.2559 32.3979 10.3347L29.8954 10.6011C29.0018 10.695 28.1013 10.5037 27.3229 10.0547C26.5479 9.60444 25.9353 8.92038 25.5729 8.10056L24.5424 5.80028C24.2383 5.11555 23.7421 4.53375 23.114 4.12545C22.4858 3.71714 21.7527 3.49988 21.0035 3.5C20.2543 3.49988 19.5211 3.71714 18.893 4.12545C18.2648 4.53375 17.7686 5.11555 17.4646 5.80028L16.4418 8.10056C16.0794 8.92038 15.4668 9.60444 14.6918 10.0547C13.9134 10.5037 13.013 10.695 12.1193 10.6011L9.60903 10.3347C8.86411 10.2559 8.11233 10.3949 7.44484 10.7349C6.77734 11.0749 6.22281 11.6012 5.84848 12.25C5.47366 12.8984 5.2951 13.6417 5.33445 14.3897C5.37379 15.1376 5.62936 15.8581 6.07015 16.4636L7.55181 18.4994C8.08021 19.2261 8.36475 20.1015 8.36459 21C8.36475 21.8985 8.08021 22.7739 7.55181 23.5006L6.07015 25.5364C5.62936 26.1419 5.37379 26.8624 5.33445 27.6103C5.2951 28.3583 5.47366 29.1016 5.84848 29.75C6.22318 30.3985 6.77778 30.9245 7.44517 31.2644C8.11257 31.6043 8.86417 31.7436 9.60903 31.6653L12.1115 31.3989C13.0052 31.305 13.9057 31.4963 14.684 31.9453C15.462 32.3943 16.0774 33.0785 16.4418 33.8994Z" fill="#28285B"/>
<path d="M21.0004 26.25C23.8998 26.25 26.2504 23.8995 26.2504 21C26.2504 18.1005 23.8998 15.75 21.0004 15.75C18.1009 15.75 15.7504 18.1005 15.7504 21C15.7504 23.8995 18.1009 26.25 21.0004 26.25Z" fill="#28285B"/>
<path d="M16.4418 33.8994L17.4646 36.1997C17.7686 36.8845 18.2648 37.4662 18.893 37.8745C19.5211 38.2829 20.2543 38.5001 21.0035 38.5C21.7527 38.5001 22.4858 38.2829 23.114 37.8745C23.7421 37.4662 24.2383 36.8845 24.5424 36.1997L25.5651 33.8994C25.9292 33.0832 26.5417 32.4028 27.3151 31.955C28.0935 31.506 28.994 31.3148 29.8876 31.4086L32.3901 31.675C33.1351 31.7538 33.8869 31.6148 34.5543 31.2748C35.2218 30.9349 35.7764 30.4086 36.1507 29.7597C36.5255 29.1113 36.7041 28.368 36.6647 27.62C36.6254 26.8721 36.3698 26.1517 35.929 25.5461L34.4474 23.5103C33.9198 22.78 33.6379 21.9009 33.6424 21C33.6422 20.1015 33.9267 19.2261 34.4551 18.4994L35.9368 16.4636C36.3776 15.8581 36.6332 15.1376 36.6725 14.3897C36.7119 13.6417 36.5333 12.8984 36.1585 12.25C35.7841 11.6012 35.2296 11.0749 34.5621 10.7349C33.8946 10.3949 33.1428 10.2559 32.3979 10.3347L29.8954 10.6011C29.0018 10.695 28.1013 10.5037 27.3229 10.0547C26.5479 9.60444 25.9353 8.92038 25.5729 8.10056L24.5424 5.80028C24.2383 5.11555 23.7421 4.53375 23.114 4.12545C22.4858 3.71714 21.7527 3.49988 21.0035 3.5C20.2543 3.49988 19.5211 3.71714 18.893 4.12545C18.2648 4.53375 17.7686 5.11555 17.4646 5.80028L16.4418 8.10056C16.0794 8.92038 15.4668 9.60444 14.6918 10.0547C13.9134 10.5037 13.013 10.695 12.1193 10.6011L9.60903 10.3347C8.86411 10.2559 8.11233 10.3949 7.44484 10.7349C6.77734 11.0749 6.22281 11.6012 5.84848 12.25C5.47366 12.8984 5.2951 13.6417 5.33445 14.3897C5.37379 15.1376 5.62936 15.8581 6.07015 16.4636L7.55181 18.4994C8.08021 19.2261 8.36475 20.1015 8.36459 21C8.36475 21.8985 8.08021 22.7739 7.55181 23.5006L6.07015 25.5364C5.62936 26.1419 5.37379 26.8624 5.33445 27.6103C5.2951 28.3583 5.47366 29.1016 5.84848 29.75C6.22318 30.3985 6.77778 30.9245 7.44517 31.2644C8.11257 31.6043 8.86417 31.7436 9.60903 31.6653L12.1115 31.3989C13.0052 31.305 13.9057 31.4963 14.684 31.9453C15.462 32.3943 16.0774 33.0785 16.4418 33.8994Z" stroke="#FF8282" stroke-width="1.5" stroke-linecap="round" stroke-linejoin="round"/>
<path d="M21.0004 26.25C23.8998 26.25 26.2504 23.8995 26.2504 21C26.2504 18.1005 23.8998 15.75 21.0004 15.75C18.1009 15.75 15.7504 18.1005 15.7504 21C15.7504 23.8995 18.1009 26.25 21.0004 26.25Z" stroke="#FF8282" stroke-width="1.5" stroke-linecap="round" stroke-linejoin="round"/>
</svg>
