<svg width="32" height="40" viewBox="0 0 32 40" fill="none" xmlns="http://www.w3.org/2000/svg">
<path d="M12.3775 17.311L19.7515 29.7325C19.8499 29.8983 20.0285 30 20.2214 30L27.6138 30C27.8054 30 27.983 29.8997 28.0819 29.7356L32 23.2351L24.3144 23.2245C24.123 23.2242 23.9458 23.1239 23.847 22.9599L16.2013 10.2645C16.1024 10.1004 15.9248 10 15.7332 10L8.38609 10C8.19479 10 8.01741 10.1 7.91844 10.2638L3.98206 16.776L0.170825 23.052C0.065736 23.2251 0.0649426 23.4421 0.168767 23.6159L3.82303 29.7338C3.92166 29.8989 4.09983 30 4.29217 30L10.9792 30C11.4043 30 11.6666 29.5358 11.4473 29.1716L3.98206 16.776L11.4378 16.776C11.8235 16.776 12.1806 16.9793 12.3775 17.311Z" fill="#0075FF"/>
</svg>
