<?xml version="1.0" encoding="UTF-8"?>
<svg xmlns="http://www.w3.org/2000/svg" xmlns:xlink="http://www.w3.org/1999/xlink" width="140px" height="120px" viewBox="0 0 158 120" version="1.1">
<defs>
<filter id="alpha" filterUnits="objectBoundingBox" x="0%" y="0%" width="100%" height="100%">
  <feColorMatrix type="matrix" in="SourceGraphic" values="0 0 0 0 1 0 0 0 0 1 0 0 0 0 1 0 0 0 1 0"/>
</filter>
<mask id="mask0">
  <g filter="url(#alpha)">
<rect x="0" y="0" width="158" height="120" style="fill:rgb(0%,0%,0%);fill-opacity:0.101961;stroke:none;"/>
  </g>
</mask>
<clipPath id="clip1">
  <rect x="0" y="0" width="158" height="120"/>
</clipPath>
<g id="surface5" clip-path="url(#clip1)">
<path style=" stroke:none;fill-rule:nonzero;fill:rgb(0%,0%,0%);fill-opacity:1;" d="M 141.503906 39.535156 C 141.382812 38.660156 141.621094 38.113281 141.730469 37.089844 L 136.5 41.054688 C 136.5 41.054688 136.625 41.589844 136.722656 42.375 C 136.984375 42.417969 137.253906 42.4375 137.519531 42.4375 C 139.335938 42.4375 140.640625 41.011719 141.503906 39.535156 Z M 141.503906 39.535156 "/>
</g>
<mask id="mask1">
  <g filter="url(#alpha)">
<rect x="0" y="0" width="158" height="120" style="fill:rgb(0%,0%,0%);fill-opacity:0.101961;stroke:none;"/>
  </g>
</mask>
<clipPath id="clip2">
  <rect x="0" y="0" width="158" height="120"/>
</clipPath>
<g id="surface8" clip-path="url(#clip2)">
<path style=" stroke:none;fill-rule:nonzero;fill:rgb(0%,0%,0%);fill-opacity:1;" d="M 144.164062 53 C 144.164062 53 144.347656 59.640625 143.613281 62.128906 "/>
</g>
<mask id="mask2">
  <g filter="url(#alpha)">
<rect x="0" y="0" width="158" height="120" style="fill:rgb(0%,0%,0%);fill-opacity:0.101961;stroke:none;"/>
  </g>
</mask>
<clipPath id="clip3">
  <rect x="0" y="0" width="158" height="120"/>
</clipPath>
<g id="surface11" clip-path="url(#clip3)">
<path style=" stroke:none;fill-rule:nonzero;fill:rgb(0%,0%,0%);fill-opacity:1;" d="M 129.296875 54.289062 C 129.296875 54.289062 130.398438 53.921875 130.398438 53 "/>
</g>
</defs>
<g id="surface1">
<path style=" stroke:none;fill-rule:nonzero;fill:rgb(80.000001%,80.000001%,80.000001%);fill-opacity:1;" d="M 2.15625 118.027344 C 2.15625 118.109375 2.191406 118.1875 2.25 118.242188 C 2.308594 118.300781 2.386719 118.332031 2.46875 118.328125 L 157.722656 118.328125 C 157.832031 118.335938 157.933594 118.277344 157.992188 118.183594 C 158.046875 118.089844 158.046875 117.96875 157.992188 117.875 C 157.933594 117.777344 157.832031 117.722656 157.722656 117.726562 L 2.46875 117.726562 C 2.386719 117.726562 2.308594 117.757812 2.25 117.8125 C 2.191406 117.871094 2.15625 117.945312 2.15625 118.027344 Z M 2.15625 118.027344 "/>
<path style=" stroke:none;fill-rule:nonzero;fill:rgb(83.92157%,83.92157%,89.019608%);fill-opacity:1;" d="M 81.269531 88.3125 C 80.851562 90.859375 78.664062 92.726562 76.097656 92.726562 C 73.53125 92.726562 71.34375 90.859375 70.925781 88.3125 L 57.6875 88.3125 L 57.6875 117.140625 L 94.507812 117.140625 L 94.507812 88.3125 Z M 81.269531 88.3125 "/>
<path style=" stroke:none;fill-rule:nonzero;fill:rgb(71.372551%,70.19608%,77.254903%);fill-opacity:1;" d="M 58.332031 117.035156 L 61.96875 117.035156 L 61.96875 117.679688 L 58.332031 117.679688 Z M 58.332031 117.035156 "/>
<path style=" stroke:none;fill-rule:nonzero;fill:rgb(71.372551%,70.19608%,77.254903%);fill-opacity:1;" d="M 90.546875 117.144531 L 94.1875 117.144531 L 94.1875 117.789062 L 90.546875 117.789062 Z M 90.546875 117.144531 "/>
<path style=" stroke:none;fill-rule:nonzero;fill:rgb(3.529412%,3.137255%,7.843138%);fill-opacity:1;" d="M 57.796875 114.859375 L 94.613281 114.859375 L 94.613281 115.863281 L 57.796875 115.863281 Z M 57.796875 114.859375 "/>
<path style=" stroke:none;fill-rule:nonzero;fill:rgb(3.529412%,3.137255%,7.843138%);fill-opacity:1;" d="M 150.144531 89.066406 L 2.050781 89.066406 C 0.917969 89.066406 0 88.144531 0 87.003906 L 0 2.0625 C 0 0.925781 0.917969 0 2.050781 0 L 150.144531 0 C 151.277344 0 152.195312 0.925781 152.195312 2.0625 L 152.195312 87.003906 C 152.195312 88.144531 151.277344 89.066406 150.144531 89.066406 Z M 150.144531 89.066406 "/>
<path style=" stroke:none;fill-rule:nonzero;fill:rgb(100%,100%,100%);fill-opacity:1;" d="M 3.636719 3.441406 L 148.554688 3.441406 L 148.554688 85.625 L 3.636719 85.625 Z M 3.636719 3.441406 "/>
<path style=" stroke:none;fill-rule:nonzero;fill:rgb(83.92157%,83.92157%,89.019608%);fill-opacity:1;" d="M 76.234375 44.363281 L 60.695312 32.667969 L 45.371094 44.203125 L 45.019531 43.734375 L 60.695312 31.933594 L 76.160156 43.574219 L 91.527344 26.671875 L 91.589844 26.644531 L 107.089844 20.371094 L 107.308594 20.914062 L 91.871094 27.167969 Z M 76.234375 44.363281 "/>
<path style=" stroke:none;fill-rule:nonzero;fill:rgb(24.705882%,23.921569%,33.725491%);fill-opacity:1;" d="M 122.933594 66.015625 L 29.476562 66.015625 C 29.316406 66.015625 29.183594 65.882812 29.183594 65.722656 L 29.183594 20.699219 C 29.183594 20.539062 29.316406 20.40625 29.476562 20.40625 C 29.636719 20.40625 29.769531 20.539062 29.769531 20.699219 L 29.769531 65.425781 L 122.933594 65.425781 C 123.09375 65.425781 123.226562 65.558594 123.226562 65.722656 C 123.226562 65.882812 123.09375 66.015625 122.933594 66.015625 Z M 122.933594 66.015625 "/>
<path style=" stroke:none;fill-rule:nonzero;fill:rgb(47.450981%,46.27451%,19.215687%);fill-opacity:1;" d="M 49.445312 62.78125 L 40.945312 62.78125 C 40.464844 62.78125 40.078125 62.390625 40.074219 61.910156 L 40.074219 50.132812 C 40.078125 49.648438 40.464844 49.261719 40.945312 49.257812 L 49.445312 49.257812 C 49.921875 49.261719 50.3125 49.648438 50.3125 50.132812 L 50.3125 61.910156 C 50.3125 62.390625 49.921875 62.78125 49.445312 62.78125 Z M 49.445312 62.78125 "/>
<path style=" stroke:none;fill-rule:nonzero;fill:rgb(47.450981%,46.27451%,19.215687%);fill-opacity:1;" d="M 64.945312 62.78125 L 56.445312 62.78125 C 55.964844 62.78125 55.578125 62.390625 55.578125 61.910156 L 55.578125 38.960938 C 55.578125 38.480469 55.964844 38.089844 56.445312 38.089844 L 64.945312 38.089844 C 65.425781 38.089844 65.8125 38.480469 65.8125 38.960938 L 65.8125 61.910156 C 65.8125 62.390625 65.425781 62.78125 64.945312 62.78125 Z M 64.945312 62.78125 "/>
<path style=" stroke:none;fill-rule:nonzero;fill:rgb(47.450981%,46.27451%,19.215687%);fill-opacity:1;" d="M 80.445312 62.78125 L 71.945312 62.78125 C 71.46875 62.78125 71.078125 62.390625 71.078125 61.910156 L 71.078125 50.132812 C 71.078125 49.648438 71.46875 49.261719 71.945312 49.257812 L 80.445312 49.257812 C 80.925781 49.261719 81.316406 49.648438 81.316406 50.132812 L 81.316406 61.910156 C 81.316406 62.390625 80.925781 62.78125 80.445312 62.78125 Z M 80.445312 62.78125 "/>
<path style=" stroke:none;fill-rule:nonzero;fill:rgb(47.450981%,46.27451%,19.215687%);fill-opacity:1;" d="M 95.949219 62.78125 L 87.449219 62.78125 C 86.980469 62.792969 86.589844 62.417969 86.578125 61.949219 L 86.578125 34.511719 C 86.589844 34.042969 86.980469 33.667969 87.449219 33.679688 L 95.949219 33.679688 C 96.417969 33.667969 96.804688 34.042969 96.816406 34.511719 L 96.816406 61.949219 C 96.804688 62.417969 96.417969 62.792969 95.949219 62.78125 Z M 95.949219 62.78125 "/>
<path style=" stroke:none;fill-rule:nonzero;fill:rgb(47.450981%,46.27451%,19.215687%);fill-opacity:1;" d="M 111.449219 62.78125 L 102.949219 62.78125 C 102.46875 62.78125 102.082031 62.390625 102.082031 61.910156 L 102.082031 26.617188 C 102.082031 26.132812 102.46875 25.742188 102.949219 25.742188 L 111.449219 25.742188 C 111.929688 25.742188 112.316406 26.132812 112.316406 26.617188 L 112.316406 61.910156 C 112.316406 62.390625 111.929688 62.78125 111.449219 62.78125 Z M 111.449219 62.78125 "/>
<path style=" stroke:none;fill-rule:nonzero;fill:rgb(24.705882%,23.921569%,33.725491%);fill-opacity:1;" d="M 46.953125 43.953125 C 46.953125 43.019531 46.148438 42.261719 45.15625 42.261719 C 44.164062 42.261719 43.359375 43.019531 43.359375 43.953125 C 43.359375 44.890625 44.164062 45.648438 45.15625 45.648438 C 46.148438 45.648438 46.953125 44.890625 46.953125 43.953125 Z M 46.953125 43.953125 "/>
<path style=" stroke:none;fill-rule:nonzero;fill:rgb(24.705882%,23.921569%,33.725491%);fill-opacity:1;" d="M 62.449219 32.554688 C 62.449219 31.558594 61.644531 30.75 60.652344 30.75 C 59.660156 30.75 58.855469 31.558594 58.855469 32.554688 C 58.855469 33.554688 59.660156 34.363281 60.652344 34.363281 C 61.644531 34.363281 62.449219 33.554688 62.449219 32.554688 Z M 62.449219 32.554688 "/>
<path style=" stroke:none;fill-rule:nonzero;fill:rgb(24.705882%,23.921569%,33.725491%);fill-opacity:1;" d="M 77.945312 43.953125 C 77.945312 43.019531 77.140625 42.261719 76.148438 42.261719 C 75.15625 42.261719 74.351562 43.019531 74.351562 43.953125 C 74.351562 44.890625 75.15625 45.648438 76.148438 45.648438 C 77.140625 45.648438 77.945312 44.890625 77.945312 43.953125 Z M 77.945312 43.953125 "/>
<path style=" stroke:none;fill-rule:nonzero;fill:rgb(24.705882%,23.921569%,33.725491%);fill-opacity:1;" d="M 93.441406 26.914062 C 93.441406 25.917969 92.636719 25.109375 91.644531 25.109375 C 90.652344 25.109375 89.847656 25.917969 89.847656 26.914062 C 89.847656 27.910156 90.652344 28.71875 91.644531 28.71875 C 92.636719 28.71875 93.441406 27.910156 93.441406 26.914062 Z M 93.441406 26.914062 "/>
<path style=" stroke:none;fill-rule:nonzero;fill:rgb(24.705882%,23.921569%,33.725491%);fill-opacity:1;" d="M 108.9375 20.59375 C 108.9375 19.597656 108.132812 18.789062 107.140625 18.789062 C 106.148438 18.789062 105.34375 19.597656 105.34375 20.59375 C 105.34375 21.589844 106.148438 22.398438 107.140625 22.398438 C 108.132812 22.398438 108.9375 21.589844 108.9375 20.59375 Z M 108.9375 20.59375 "/>
<path style=" stroke:none;fill-rule:nonzero;fill:rgb(100%,72.549021%,72.549021%);fill-opacity:1;" d="M 122.914062 51.9375 C 122.914062 51.9375 120.253906 51.476562 116.304688 47.878906 C 113.183594 45.035156 108.972656 45.59375 107.347656 45.953125 C 107.234375 45.976562 107.148438 46.070312 107.132812 46.1875 C 107.117188 46.300781 107.171875 46.414062 107.273438 46.46875 C 107.929688 46.832031 108.949219 47.359375 109.425781 47.417969 C 109.425781 47.417969 108.441406 48.441406 109.488281 48.988281 C 109.742188 49.113281 110.046875 49.085938 110.273438 48.914062 C 110.777344 48.542969 112.171875 49.382812 114.199219 49.816406 C 114.199219 49.816406 122.089844 58.023438 123.925781 56.632812 Z M 122.914062 51.9375 "/>
<path style=" stroke:none;fill-rule:nonzero;fill:rgb(100%,72.549021%,72.549021%);fill-opacity:1;" d="M 136.5 40.777344 C 136.5 40.777344 137.234375 43.914062 136.5 46.128906 L 139.804688 46.589844 L 142.742188 45.113281 L 142.742188 43.175781 C 142.742188 43.175781 141.363281 40.226562 141.730469 36.8125 Z M 136.5 40.777344 "/>
<path style=" stroke:none;fill-rule:nonzero;fill:rgb(3.529412%,3.137255%,7.843138%);fill-opacity:1;" d="M 145.855469 108.746094 C 145.855469 108.746094 148.25 113.453125 147.875 116.585938 C 147.5 119.722656 150.992188 116.957031 150.625 115.113281 C 150.550781 117.34375 151.652344 107.292969 152.171875 104.9375 C 152.285156 104.410156 151.988281 103.882812 151.476562 103.714844 C 150.375 103.347656 148.527344 102.902344 147.597656 103.585938 C 146.226562 104.597656 145.855469 108.746094 145.855469 108.746094 Z M 145.855469 108.746094 "/>
<path style=" stroke:none;fill-rule:nonzero;fill:rgb(3.529412%,3.137255%,7.843138%);fill-opacity:1;" d="M 136.777344 113.914062 C 136.777344 113.914062 133.65625 117.96875 132.832031 118.0625 C 132.003906 118.15625 131.453125 119.445312 132.832031 119.722656 C 135.578125 120.203125 138.40625 119.925781 141.007812 118.921875 C 141.546875 118.710938 141.871094 118.160156 141.792969 117.585938 L 141.265625 113.636719 Z M 136.777344 113.914062 "/>
<path style=" stroke:none;fill-rule:nonzero;fill:rgb(3.529412%,3.137255%,7.843138%);fill-opacity:1;" d="M 131.636719 70.84375 L 128.644531 71.242188 C 129.054688 74.757812 129.042969 78.304688 128.609375 81.816406 L 128.609375 94.449219 C 128.609375 94.449219 128.550781 95.5625 130.847656 97.179688 C 133.257812 98.863281 135.582031 100.667969 137.808594 102.59375 L 146.132812 109.84375 C 146.132812 109.84375 149.4375 105.785156 148.980469 103.386719 C 148.980469 103.386719 143.472656 101.632812 142.738281 98.773438 C 142.316406 97.140625 140.183594 95.765625 138.4375 94.90625 C 136.171875 93.800781 134.980469 91.261719 135.574219 88.800781 C 135.675781 88.386719 135.832031 87.988281 136.042969 87.617188 C 137.511719 85.035156 139.621094 79.222656 139.621094 79.222656 L 135.582031 71.488281 Z M 131.636719 70.84375 "/>
<path style=" stroke:none;fill-rule:nonzero;fill:rgb(3.529412%,3.137255%,7.843138%);fill-opacity:1;" d="M 136.042969 114.195312 C 136.042969 114.195312 141.457031 115.117188 141.640625 115.671875 C 141.824219 116.222656 141.640625 114.933594 141.640625 114.933594 C 141.640625 114.933594 144.761719 105.433594 144.035156 97.042969 C 143.308594 88.652344 144.953125 83.117188 144.953125 83.117188 C 144.953125 83.117188 146.878906 76.84375 145.777344 73.246094 C 144.675781 69.648438 133.113281 71.21875 133.113281 71.21875 C 133.113281 71.21875 137.152344 80.71875 137.058594 85.238281 C 137.058594 85.238281 137.519531 98.886719 138.34375 100.453125 C 138.335938 100.445312 137.050781 113.820312 136.042969 114.195312 Z M 136.042969 114.195312 "/>
<path style=" stroke:none;fill-rule:nonzero;fill:rgb(100%,100%,100%);fill-opacity:1;" d="M 136.679688 43.175781 C 136.679688 43.175781 137.230469 46.585938 142.734375 45.113281 L 139.074219 73.148438 C 139.074219 73.148438 128.425781 73.519531 128.519531 72.226562 L 130.714844 55.257812 Z M 136.679688 43.175781 "/>
<path style=" stroke:none;fill-rule:nonzero;fill:rgb(83.92157%,83.92157%,89.019608%);fill-opacity:1;" d="M 136.820312 43.085938 C 136.003906 43.730469 135.019531 44.136719 133.988281 44.257812 C 133.074219 44.328125 132.1875 44.59375 131.382812 45.035156 C 130.4375 45.566406 129.386719 46.339844 129.066406 47.277344 C 128.425781 49.125 124.386719 52.167969 122.550781 51.519531 L 123.195312 57.054688 C 123.195312 57.054688 128.425781 56.777344 129.34375 54.75 L 127.785156 74.496094 L 129.160156 74.496094 C 129.160156 74.496094 129.894531 69.144531 130.445312 68.039062 C 130.996094 66.933594 132.097656 60.84375 132.191406 59.371094 C 132.28125 57.894531 133.65625 49.410156 134.851562 47.941406 L 136.824219 43.652344 Z M 136.820312 43.085938 "/>
<use xlink:href="#surface5" mask="url(#mask0)"/>
<path style=" stroke:none;fill-rule:nonzero;fill:rgb(100%,72.549021%,72.549021%);fill-opacity:1;" d="M 142.464844 37.183594 C 142.464844 34.433594 140.246094 32.203125 137.511719 32.203125 C 134.773438 32.203125 132.554688 34.433594 132.554688 37.183594 C 132.554688 39.933594 134.773438 42.164062 137.511719 42.164062 C 140.246094 42.164062 142.464844 39.933594 142.464844 37.183594 Z M 142.464844 37.183594 "/>
<path style=" stroke:none;fill-rule:nonzero;fill:rgb(3.529412%,3.137255%,7.843138%);fill-opacity:1;" d="M 132.53125 32.941406 C 132.5 32.167969 132.625 31.394531 132.898438 30.667969 C 132.742188 30.90625 132.78125 31.222656 132.992188 31.410156 C 133.140625 30.617188 133.546875 29.898438 134.144531 29.363281 C 133.816406 29.417969 133.648438 29.820312 133.730469 30.144531 C 133.839844 30.457031 134.035156 30.734375 134.296875 30.941406 C 134.269531 30.457031 134.589844 30 134.992188 29.734375 C 135.414062 29.488281 135.875 29.320312 136.355469 29.238281 C 136.019531 29.359375 135.804688 29.691406 135.832031 30.050781 C 135.835938 30.113281 135.859375 30.167969 135.902344 30.210938 C 135.945312 30.238281 136 30.253906 136.054688 30.25 C 136.53125 30.269531 137.011719 30.257812 137.484375 30.21875 C 138.070312 30.152344 138.660156 30.121094 139.25 30.125 C 141.089844 30.203125 142.941406 31.464844 143.351562 33.269531 C 143.4375 33.707031 143.484375 34.152344 143.488281 34.597656 L 143.578125 36.878906 C 143.628906 37.542969 143.601562 38.210938 143.496094 38.867188 C 143.238281 40.097656 142.445312 41.148438 141.339844 41.734375 C 140.675781 40.765625 140.617188 39.519531 140.386719 38.367188 C 140.347656 38.101562 140.25 37.847656 140.097656 37.628906 C 139.9375 37.40625 139.652344 37.308594 139.390625 37.386719 C 139.140625 37.488281 139.035156 37.867188 139.242188 38.039062 C 139.054688 38.257812 138.710938 38.09375 138.503906 37.902344 C 137.921875 37.347656 137.523438 36.628906 137.355469 35.839844 C 137.273438 35.445312 137.191406 34.957031 136.804688 34.820312 C 136.671875 34.785156 136.53125 34.773438 136.394531 34.792969 C 135.589844 34.847656 134.328125 35.183594 133.546875 34.925781 C 132.832031 34.691406 132.53125 33.625 132.53125 32.941406 Z M 132.53125 32.941406 "/>
<path style=" stroke:none;fill-rule:nonzero;fill:rgb(83.92157%,83.92157%,89.019608%);fill-opacity:1;" d="M 122.515625 51.523438 C 122.515625 51.523438 121.78125 54.933594 123.15625 57.058594 L 123.9375 56.992188 L 123.511719 51.578125 Z M 122.515625 51.523438 "/>
<path style=" stroke:none;fill-rule:nonzero;fill:rgb(83.92157%,83.92157%,89.019608%);fill-opacity:1;" d="M 142.421875 42.214844 L 148.339844 47.335938 C 148.339844 47.335938 151.824219 50.933594 150.359375 56.742188 C 150.359375 56.742188 149.714844 65.226562 148.980469 65.597656 C 148.980469 65.597656 146.410156 70.761719 146.226562 75.648438 C 146.226562 75.648438 142.601562 68.316406 141.042969 72.558594 C 139.480469 76.800781 136.039062 77.773438 136.039062 77.773438 L 138.058594 52.6875 C 138.058594 52.6875 143.152344 43.777344 142.421875 42.214844 Z M 142.421875 42.214844 "/>
<path style=" stroke:none;fill-rule:nonzero;fill:rgb(100%,72.549021%,72.549021%);fill-opacity:1;" d="M 145.128906 63.835938 C 145.128906 63.835938 146.59375 62.820312 148.980469 65.589844 L 143.109375 76.285156 L 141.136719 73.292969 C 141.136719 73.292969 145.3125 65.035156 145.128906 63.835938 Z M 145.128906 63.835938 "/>
<path style=" stroke:none;fill-rule:nonzero;fill:rgb(83.92157%,83.92157%,89.019608%);fill-opacity:1;" d="M 143.703125 64.25 C 143.703125 64.25 146.953125 67.917969 148.21875 67.328125 L 149.390625 64.582031 L 144.988281 62.683594 Z M 143.703125 64.25 "/>
<use xlink:href="#surface8" mask="url(#mask1)"/>
<use xlink:href="#surface11" mask="url(#mask2)"/>
</g>
</svg>
