<?xml version="1.0" encoding="UTF-8"?>
<svg xmlns="http://www.w3.org/2000/svg" xmlns:xlink="http://www.w3.org/1999/xlink" width="140px" height="120px" viewBox="0 0 190 120" version="1.1">
<defs>
<filter id="alpha" filterUnits="objectBoundingBox" x="0%" y="0%" width="100%" height="100%">
  <feColorMatrix type="matrix" in="SourceGraphic" values="0 0 0 0 1 0 0 0 0 1 0 0 0 0 1 0 0 0 1 0"/>
</filter>
<mask id="mask0">
  <g filter="url(#alpha)">
<rect x="0" y="0" width="190" height="120" style="fill:rgb(0%,0%,0%);fill-opacity:0.4;stroke:none;"/>
  </g>
</mask>
<clipPath id="clip1">
  <rect x="0" y="0" width="190" height="120"/>
</clipPath>
<g id="surface5" clip-path="url(#clip1)">
<path style=" stroke:none;fill-rule:nonzero;fill:rgb(47.450981%,46.27451%,19.215687%);fill-opacity:1;" d="M 15.378906 37.464844 C 11.765625 36.875 8.363281 39.335938 7.777344 42.957031 C 7.191406 46.578125 9.644531 49.992188 13.257812 50.578125 C 16.871094 51.167969 20.273438 48.707031 20.859375 45.085938 C 21.445312 41.464844 18.992188 38.050781 15.378906 37.464844 Z M 15.378906 37.464844 "/>
</g>
<mask id="mask1">
  <g filter="url(#alpha)">
<rect x="0" y="0" width="190" height="120" style="fill:rgb(0%,0%,0%);fill-opacity:0.4;stroke:none;"/>
  </g>
</mask>
<clipPath id="clip2">
  <rect x="0" y="0" width="190" height="120"/>
</clipPath>
<g id="surface8" clip-path="url(#clip2)">
<path style=" stroke:none;fill-rule:nonzero;fill:rgb(47.450981%,46.27451%,19.215687%);fill-opacity:1;" d="M 162.332031 57.945312 C 162.332031 53.917969 159.078125 50.65625 155.0625 50.65625 C 151.050781 50.65625 147.796875 53.917969 147.796875 57.945312 C 147.796875 61.96875 151.050781 65.230469 155.0625 65.230469 C 159.078125 65.230469 162.332031 61.96875 162.332031 57.945312 Z M 162.332031 57.945312 "/>
</g>
</defs>
<g id="surface1">
<path style=" stroke:none;fill-rule:nonzero;fill:rgb(47.450981%,46.27451%,19.215687%);fill-opacity:1;" d="M 138.609375 29.253906 C 138.609375 40.777344 120.640625 74.761719 110.335938 93.300781 C 108.914062 95.863281 106.21875 97.449219 103.292969 97.449219 C 100.367188 97.449219 97.671875 95.863281 96.25 93.300781 C 85.949219 74.761719 67.980469 40.777344 67.980469 29.253906 C 67.980469 13.097656 83.789062 0 103.292969 0 C 122.796875 0 138.609375 13.097656 138.609375 29.253906 Z M 138.609375 29.253906 "/>
<path style=" stroke:none;fill-rule:nonzero;fill:rgb(100%,100%,100%);fill-opacity:1;" d="M 122.691406 28.917969 C 122.691406 18.273438 114.082031 9.640625 103.460938 9.640625 C 92.835938 9.640625 84.226562 18.273438 84.226562 28.917969 C 84.226562 39.566406 92.835938 48.199219 103.460938 48.199219 C 114.082031 48.199219 122.691406 39.566406 122.691406 28.917969 Z M 122.691406 28.917969 "/>
<path style=" stroke:none;fill-rule:nonzero;fill:rgb(100%,39.607844%,51.764709%);fill-opacity:1;" d="M 34.722656 34.816406 C 34.722656 28.4375 29.566406 23.269531 23.207031 23.269531 C 16.84375 23.269531 11.6875 28.4375 11.6875 34.816406 C 11.6875 41.195312 16.84375 46.363281 23.207031 46.363281 C 29.566406 46.363281 34.722656 41.195312 34.722656 34.816406 Z M 34.722656 34.816406 "/>
<path style=" stroke:none;fill-rule:nonzero;fill:rgb(47.450981%,46.27451%,19.215687%);fill-opacity:1;" d="M 131.175781 117.957031 C 131.175781 116.765625 118.695312 115.800781 103.292969 115.800781 C 87.894531 115.800781 75.410156 116.765625 75.410156 117.957031 C 75.410156 119.148438 87.894531 120.117188 103.292969 120.117188 C 118.695312 120.117188 131.175781 119.148438 131.175781 117.957031 Z M 131.175781 117.957031 "/>
<use xlink:href="#surface5" mask="url(#mask0)"/>
<path style=" stroke:none;fill-rule:nonzero;fill:rgb(24.705882%,23.921569%,33.725491%);fill-opacity:1;" d="M 169.367188 78.292969 C 117.175781 58.679688 53.523438 77.800781 16.773438 116.910156 C 16.566406 117.132812 16.355469 117.355469 16.15625 117.578125 L 15.59375 117.578125 C 15.785156 117.355469 15.984375 117.132812 16.179688 116.910156 C 53.695312 74.824219 116.5 58.050781 169.367188 78.292969 Z M 169.367188 78.292969 "/>
<path style=" stroke:none;fill-rule:nonzero;fill:rgb(24.705882%,23.921569%,33.725491%);fill-opacity:1;" d="M 183.625 84.796875 C 179.015625 82.332031 174.25 80.160156 169.367188 78.292969 C 174.261719 80.128906 179.027344 82.300781 183.625 84.796875 Z M 183.625 84.796875 "/>
<use xlink:href="#surface8" mask="url(#mask1)"/>
<path style=" stroke:none;fill-rule:nonzero;fill:rgb(24.705882%,23.921569%,33.725491%);fill-opacity:1;" d="M 155.875 113.992188 C 156.433594 116.070312 158.359375 117.359375 158.359375 117.359375 C 158.359375 117.359375 159.371094 115.273438 158.8125 113.195312 C 158.25 111.113281 156.324219 109.824219 156.324219 109.824219 C 156.324219 109.824219 155.3125 111.910156 155.875 113.992188 Z M 155.875 113.992188 "/>
<path style=" stroke:none;fill-rule:nonzero;fill:rgb(47.450981%,46.27451%,19.215687%);fill-opacity:1;" d="M 156.699219 113.542969 C 158.238281 115.046875 158.429688 117.359375 158.429688 117.359375 C 158.429688 117.359375 156.117188 117.234375 154.578125 115.730469 C 153.035156 114.226562 152.847656 111.914062 152.847656 111.914062 C 152.847656 111.914062 155.15625 112.039062 156.699219 113.542969 Z M 156.699219 113.542969 "/>
<path style=" stroke:none;fill-rule:nonzero;fill:rgb(24.705882%,23.921569%,33.725491%);fill-opacity:1;" d="M 1.113281 85.050781 L 1.113281 88.261719 L 0.953125 88.433594 L 0.953125 85.015625 C 1.007812 85.027344 1.0625 85.039062 1.113281 85.050781 Z M 1.113281 85.050781 "/>
<path style=" stroke:none;fill-rule:nonzero;fill:rgb(80.000001%,80.000001%,80.000001%);fill-opacity:1;" d="M 11.320312 116.910156 C 11.273438 116.988281 11.222656 117.0625 11.175781 117.140625 L 0.953125 117.140625 L 0.953125 85.207031 L 1.113281 85.050781 L 2.46875 86.59375 L 2.46875 84.335938 L 6.78125 84.335938 L 6.78125 91.507812 L 11.132812 96.464844 L 11.175781 96.511719 C 11.226562 96.675781 11.277344 96.84375 11.328125 97.007812 C 11.984375 99.109375 12.519531 101.238281 12.933594 103.394531 C 13.882812 108.476562 13.742188 113.136719 11.320312 116.910156 Z M 11.320312 116.910156 "/>
<path style=" stroke:none;fill-rule:nonzero;fill:rgb(24.705882%,23.921569%,33.725491%);fill-opacity:1;" d="M 1.800781 102.699219 L 4.542969 102.699219 L 4.542969 104.992188 L 1.800781 104.992188 Z M 1.800781 102.699219 "/>
<path style=" stroke:none;fill-rule:nonzero;fill:rgb(24.705882%,23.921569%,33.725491%);fill-opacity:1;" d="M 1.800781 106.824219 L 4.542969 106.824219 L 4.542969 109.117188 L 1.800781 109.117188 Z M 1.800781 106.824219 "/>
<path style=" stroke:none;fill-rule:nonzero;fill:rgb(24.705882%,23.921569%,33.725491%);fill-opacity:1;" d="M 89.0625 98.34375 L 87.6875 96.050781 L 100.492188 85.050781 C 109.957031 80.484375 121.367188 81.800781 133.417969 85.050781 L 133.417969 88.257812 L 121.527344 101.09375 L 107.808594 103.84375 Z M 89.0625 98.34375 "/>
<path style=" stroke:none;fill-rule:nonzero;fill:rgb(80.000001%,80.000001%,80.000001%);fill-opacity:1;" d="M 139.085938 91.507812 C 141.359375 88.972656 141.675781 86.558594 139.085938 84.332031 L 134.773438 84.332031 L 134.773438 86.59375 L 133.417969 85.050781 L 122.441406 96.050781 L 120.613281 97.886719 L 118.328125 107.054688 L 122.441406 117.140625 L 143.476562 117.140625 L 143.476562 96.511719 Z M 139.085938 91.507812 "/>
<path style=" stroke:none;fill-rule:nonzero;fill:rgb(94.901961%,94.901961%,94.901961%);fill-opacity:1;" d="M 87.6875 96.050781 L 122.441406 96.050781 L 122.441406 117.140625 L 87.6875 117.140625 C 83.484375 112.578125 85.667969 104.265625 87.6875 96.050781 Z M 87.6875 96.050781 "/>
<path style=" stroke:none;fill-rule:nonzero;fill:rgb(24.705882%,23.921569%,33.725491%);fill-opacity:1;" d="M 110.324219 102.699219 L 117.640625 102.699219 L 117.640625 109.117188 L 110.324219 109.117188 Z M 110.324219 102.699219 "/>
<path style=" stroke:none;fill-rule:nonzero;fill:rgb(80.000001%,80.000001%,80.000001%);fill-opacity:1;" d="M 100.949219 102.46875 L 107.351562 102.46875 L 107.351562 117.140625 L 100.949219 117.140625 Z M 100.949219 102.46875 "/>
<path style=" stroke:none;fill-rule:nonzero;fill:rgb(24.705882%,23.921569%,33.725491%);fill-opacity:1;" d="M 93.632812 104.761719 L 93.632812 102.46875 L 90.890625 102.46875 L 90.890625 104.761719 Z M 93.632812 104.761719 "/>
<path style=" stroke:none;fill-rule:nonzero;fill:rgb(24.705882%,23.921569%,33.725491%);fill-opacity:1;" d="M 93.40625 106.59375 L 90.890625 106.59375 L 90.890625 108.886719 L 93.632812 108.886719 L 93.632812 106.59375 Z M 93.40625 106.59375 "/>
<path style=" stroke:none;fill-rule:nonzero;fill:rgb(24.705882%,23.921569%,33.725491%);fill-opacity:1;" d="M 95.460938 102.46875 L 98.207031 102.46875 L 98.207031 104.761719 L 95.460938 104.761719 Z M 95.460938 102.46875 "/>
<path style=" stroke:none;fill-rule:nonzero;fill:rgb(24.705882%,23.921569%,33.725491%);fill-opacity:1;" d="M 95.460938 106.59375 L 98.207031 106.59375 L 98.207031 108.886719 L 95.460938 108.886719 Z M 95.460938 106.59375 "/>
<path style=" stroke:none;fill-rule:nonzero;fill:rgb(24.705882%,23.921569%,33.725491%);fill-opacity:1;" d="M 132.273438 104.992188 L 132.273438 102.699219 L 129.53125 102.699219 L 129.53125 104.992188 Z M 132.273438 104.992188 "/>
<path style=" stroke:none;fill-rule:nonzero;fill:rgb(24.705882%,23.921569%,33.725491%);fill-opacity:1;" d="M 132.046875 106.824219 L 129.53125 106.824219 L 129.53125 109.117188 L 132.273438 109.117188 L 132.273438 106.824219 Z M 132.046875 106.824219 "/>
<path style=" stroke:none;fill-rule:nonzero;fill:rgb(24.705882%,23.921569%,33.725491%);fill-opacity:1;" d="M 134.101562 102.699219 L 136.847656 102.699219 L 136.847656 104.992188 L 134.101562 104.992188 Z M 134.101562 102.699219 "/>
<path style=" stroke:none;fill-rule:nonzero;fill:rgb(24.705882%,23.921569%,33.725491%);fill-opacity:1;" d="M 134.101562 106.824219 L 136.847656 106.824219 L 136.847656 109.117188 L 134.101562 109.117188 Z M 134.101562 106.824219 "/>
<path style=" stroke:none;fill-rule:nonzero;fill:rgb(24.705882%,23.921569%,33.725491%);fill-opacity:1;" d="M 27.179688 59.835938 L 24.894531 58.003906 L 37.695312 46.542969 L 70.164062 46.542969 L 70.164062 56.628906 L 49.128906 70.839844 Z M 27.179688 59.835938 "/>
<path style=" stroke:none;fill-rule:nonzero;fill:rgb(80.000001%,80.000001%,80.000001%);fill-opacity:1;" d="M 76.082031 52.972656 L 76.082031 46.773438 L 71.773438 46.773438 L 71.773438 48.289062 L 70.164062 46.542969 L 59.644531 58.003906 L 55.53125 60.753906 L 49.148438 107.492188 L 58.773438 117.140625 L 81.136719 117.140625 C 84.566406 99.859375 87.28125 82.105469 81.136719 58.460938 Z M 76.082031 52.972656 "/>
<path style=" stroke:none;fill-rule:nonzero;fill:rgb(94.901961%,94.901961%,94.901961%);fill-opacity:1;" d="M 24.890625 58.003906 L 59.644531 58.003906 L 59.644531 117.140625 L 24.890625 117.140625 C 21.089844 94.164062 19.230469 72.859375 24.890625 58.003906 Z M 24.890625 58.003906 "/>
<path style=" stroke:none;fill-rule:nonzero;fill:rgb(80.000001%,80.000001%,80.000001%);fill-opacity:1;" d="M 38.382812 102.699219 L 44.785156 102.699219 L 44.785156 117.140625 L 38.382812 117.140625 Z M 38.382812 102.699219 "/>
<path style=" stroke:none;fill-rule:nonzero;fill:rgb(24.705882%,23.921569%,33.725491%);fill-opacity:1;" d="M 31.523438 106.824219 L 31.523438 104.53125 L 28.78125 104.53125 L 28.78125 106.824219 Z M 31.523438 106.824219 "/>
<path style=" stroke:none;fill-rule:nonzero;fill:rgb(24.705882%,23.921569%,33.725491%);fill-opacity:1;" d="M 31.292969 108.660156 L 28.78125 108.660156 L 28.78125 110.949219 L 31.523438 110.949219 L 31.523438 108.660156 Z M 31.292969 108.660156 "/>
<path style=" stroke:none;fill-rule:nonzero;fill:rgb(24.705882%,23.921569%,33.725491%);fill-opacity:1;" d="M 33.351562 104.53125 L 36.097656 104.53125 L 36.097656 106.824219 L 33.351562 106.824219 Z M 33.351562 104.53125 "/>
<path style=" stroke:none;fill-rule:nonzero;fill:rgb(24.705882%,23.921569%,33.725491%);fill-opacity:1;" d="M 50.042969 108.660156 L 47.527344 108.660156 L 47.527344 110.949219 L 50.273438 110.949219 L 50.273438 108.660156 Z M 50.042969 108.660156 "/>
<path style=" stroke:none;fill-rule:nonzero;fill:rgb(24.705882%,23.921569%,33.725491%);fill-opacity:1;" d="M 52.101562 104.53125 L 54.84375 104.53125 L 54.84375 106.824219 L 52.101562 106.824219 Z M 52.101562 104.53125 "/>
<path style=" stroke:none;fill-rule:nonzero;fill:rgb(24.705882%,23.921569%,33.725491%);fill-opacity:1;" d="M 52.101562 108.660156 L 54.84375 108.660156 L 54.84375 110.949219 L 52.101562 110.949219 Z M 52.101562 108.660156 "/>
<path style=" stroke:none;fill-rule:nonzero;fill:rgb(24.705882%,23.921569%,33.725491%);fill-opacity:1;" d="M 69.476562 60.984375 L 69.476562 58.691406 L 66.734375 58.691406 L 66.734375 60.984375 Z M 69.476562 60.984375 "/>
<path style=" stroke:none;fill-rule:nonzero;fill:rgb(24.705882%,23.921569%,33.725491%);fill-opacity:1;" d="M 69.25 62.816406 L 66.734375 62.816406 L 66.734375 65.109375 L 69.476562 65.109375 L 69.476562 62.816406 Z M 69.25 62.816406 "/>
<path style=" stroke:none;fill-rule:nonzero;fill:rgb(24.705882%,23.921569%,33.725491%);fill-opacity:1;" d="M 71.308594 58.691406 L 74.050781 58.691406 L 74.050781 60.984375 L 71.308594 60.984375 Z M 71.308594 58.691406 "/>
<path style=" stroke:none;fill-rule:nonzero;fill:rgb(24.705882%,23.921569%,33.725491%);fill-opacity:1;" d="M 71.308594 62.816406 L 74.050781 62.816406 L 74.050781 65.109375 L 71.308594 65.109375 Z M 71.308594 62.816406 "/>
<path style=" stroke:none;fill-rule:nonzero;fill:rgb(24.705882%,23.921569%,33.725491%);fill-opacity:1;" d="M 69.476562 73.820312 L 69.476562 71.527344 L 66.734375 71.527344 L 66.734375 73.820312 Z M 69.476562 73.820312 "/>
<path style=" stroke:none;fill-rule:nonzero;fill:rgb(24.705882%,23.921569%,33.725491%);fill-opacity:1;" d="M 69.25 75.652344 L 66.734375 75.652344 L 66.734375 77.945312 L 69.476562 77.945312 L 69.476562 75.652344 Z M 69.25 75.652344 "/>
<path style=" stroke:none;fill-rule:nonzero;fill:rgb(24.705882%,23.921569%,33.725491%);fill-opacity:1;" d="M 71.308594 71.527344 L 74.050781 71.527344 L 74.050781 73.820312 L 71.308594 73.820312 Z M 71.308594 71.527344 "/>
<path style=" stroke:none;fill-rule:nonzero;fill:rgb(24.705882%,23.921569%,33.725491%);fill-opacity:1;" d="M 71.308594 75.652344 L 74.050781 75.652344 L 74.050781 77.945312 L 71.308594 77.945312 Z M 71.308594 75.652344 "/>
<path style=" stroke:none;fill-rule:nonzero;fill:rgb(24.705882%,23.921569%,33.725491%);fill-opacity:1;" d="M 69.476562 86.65625 L 69.476562 84.363281 L 66.734375 84.363281 L 66.734375 86.65625 Z M 69.476562 86.65625 "/>
<path style=" stroke:none;fill-rule:nonzero;fill:rgb(24.705882%,23.921569%,33.725491%);fill-opacity:1;" d="M 69.25 88.488281 L 66.734375 88.488281 L 66.734375 90.78125 L 69.476562 90.78125 L 69.476562 88.488281 Z M 69.25 88.488281 "/>
<path style=" stroke:none;fill-rule:nonzero;fill:rgb(24.705882%,23.921569%,33.725491%);fill-opacity:1;" d="M 71.308594 84.363281 L 74.050781 84.363281 L 74.050781 86.65625 L 71.308594 86.65625 Z M 71.308594 84.363281 "/>
<path style=" stroke:none;fill-rule:nonzero;fill:rgb(24.705882%,23.921569%,33.725491%);fill-opacity:1;" d="M 71.308594 88.488281 L 74.050781 88.488281 L 74.050781 90.78125 L 71.308594 90.78125 Z M 71.308594 88.488281 "/>
<path style=" stroke:none;fill-rule:nonzero;fill:rgb(24.705882%,23.921569%,33.725491%);fill-opacity:1;" d="M 69.476562 99.492188 L 69.476562 97.199219 L 66.734375 97.199219 L 66.734375 99.492188 Z M 69.476562 99.492188 "/>
<path style=" stroke:none;fill-rule:nonzero;fill:rgb(24.705882%,23.921569%,33.725491%);fill-opacity:1;" d="M 69.25 101.324219 L 66.734375 101.324219 L 66.734375 103.617188 L 69.476562 103.617188 L 69.476562 101.324219 Z M 69.25 101.324219 "/>
<path style=" stroke:none;fill-rule:nonzero;fill:rgb(24.705882%,23.921569%,33.725491%);fill-opacity:1;" d="M 71.308594 97.199219 L 74.050781 97.199219 L 74.050781 99.488281 L 71.308594 99.488281 Z M 71.308594 97.199219 "/>
<path style=" stroke:none;fill-rule:nonzero;fill:rgb(24.705882%,23.921569%,33.725491%);fill-opacity:1;" d="M 71.308594 101.324219 L 74.050781 101.324219 L 74.050781 103.617188 L 71.308594 103.617188 Z M 71.308594 101.324219 "/>
<path style=" stroke:none;fill-rule:nonzero;fill:rgb(24.705882%,23.921569%,33.725491%);fill-opacity:1;" d="M 28.78125 60.984375 L 55.300781 60.984375 L 55.300781 66.484375 C 46.800781 64.132812 37.933594 64.300781 28.78125 66.484375 Z M 28.78125 60.984375 "/>
<path style=" stroke:none;fill-rule:nonzero;fill:rgb(24.705882%,23.921569%,33.725491%);fill-opacity:1;" d="M 28.78125 71.984375 C 37.058594 74.429688 45.898438 74.429688 55.300781 71.984375 L 55.300781 77.484375 L 28.78125 77.484375 Z M 28.78125 71.984375 "/>
<path style=" stroke:none;fill-rule:nonzero;fill:rgb(24.705882%,23.921569%,33.725491%);fill-opacity:1;" d="M 28.78125 82.988281 L 55.300781 82.988281 L 55.300781 88.488281 C 46.261719 85.59375 37.414062 85.457031 28.78125 88.488281 Z M 28.78125 82.988281 "/>
<path style=" stroke:none;fill-rule:nonzero;fill:rgb(24.705882%,23.921569%,33.725491%);fill-opacity:1;" d="M 28.78125 93.988281 C 37.429688 97.332031 46.277344 97.191406 55.300781 93.988281 L 55.300781 99.488281 L 28.78125 99.488281 Z M 28.78125 93.988281 "/>
<path style=" stroke:none;fill-rule:nonzero;fill:rgb(24.705882%,23.921569%,33.725491%);fill-opacity:1;" d="M 171.324219 84.433594 L 189.960938 84.433594 L 189.960938 93.433594 L 188.296875 93.957031 L 182.757812 95.6875 L 174.070312 93.671875 L 165.394531 91.65625 L 160.808594 90.589844 L 158.523438 89.742188 C 160.425781 87.125 163.886719 85.066406 171.324219 84.433594 Z M 171.324219 84.433594 "/>
<path style=" stroke:none;fill-rule:nonzero;fill:rgb(94.901961%,94.901961%,94.901961%);fill-opacity:1;" d="M 189.960938 89.742188 L 189.960938 117.140625 L 158.523438 117.140625 C 158.511719 117.121094 158.503906 117.105469 158.496094 117.089844 C 158.488281 117.070312 158.480469 117.050781 158.46875 117.035156 C 157.980469 116.042969 157.539062 115.054688 157.148438 114.070312 C 153.851562 105.734375 154.207031 97.617188 158.523438 89.742188 Z M 189.960938 89.742188 "/>
<path style=" stroke:none;fill-rule:nonzero;fill:rgb(80.000001%,80.000001%,80.000001%);fill-opacity:1;" d="M 172.011719 102.699219 L 178.414062 102.699219 L 178.414062 117.140625 L 172.011719 117.140625 Z M 172.011719 102.699219 "/>
<path style=" stroke:none;fill-rule:nonzero;fill:rgb(24.705882%,23.921569%,33.725491%);fill-opacity:1;" d="M 165.152344 106.824219 L 165.152344 104.53125 L 162.410156 104.53125 L 162.410156 106.824219 Z M 165.152344 106.824219 "/>
<path style=" stroke:none;fill-rule:nonzero;fill:rgb(24.705882%,23.921569%,33.725491%);fill-opacity:1;" d="M 164.925781 108.660156 L 162.410156 108.660156 L 162.410156 110.949219 L 165.152344 110.949219 L 165.152344 108.660156 Z M 164.925781 108.660156 "/>
<path style=" stroke:none;fill-rule:nonzero;fill:rgb(24.705882%,23.921569%,33.725491%);fill-opacity:1;" d="M 166.980469 104.53125 L 169.726562 104.53125 L 169.726562 106.824219 L 166.980469 106.824219 Z M 166.980469 104.53125 "/>
<path style=" stroke:none;fill-rule:nonzero;fill:rgb(24.705882%,23.921569%,33.725491%);fill-opacity:1;" d="M 166.980469 108.660156 L 169.726562 108.660156 L 169.726562 110.949219 L 166.980469 110.949219 Z M 166.980469 108.660156 "/>
<path style=" stroke:none;fill-rule:nonzero;fill:rgb(24.705882%,23.921569%,33.725491%);fill-opacity:1;" d="M 183.902344 106.824219 L 183.902344 104.53125 L 181.160156 104.53125 L 181.160156 106.824219 Z M 183.902344 106.824219 "/>
<path style=" stroke:none;fill-rule:nonzero;fill:rgb(24.705882%,23.921569%,33.725491%);fill-opacity:1;" d="M 183.671875 108.660156 L 181.160156 108.660156 L 181.160156 110.949219 L 183.902344 110.949219 L 183.902344 108.660156 Z M 183.671875 108.660156 "/>
<path style=" stroke:none;fill-rule:nonzero;fill:rgb(24.705882%,23.921569%,33.725491%);fill-opacity:1;" d="M 185.730469 104.53125 L 188.476562 104.53125 L 188.476562 106.824219 L 185.730469 106.824219 Z M 185.730469 104.53125 "/>
<path style=" stroke:none;fill-rule:nonzero;fill:rgb(24.705882%,23.921569%,33.725491%);fill-opacity:1;" d="M 185.730469 108.660156 L 188.476562 108.660156 L 188.476562 110.949219 L 185.730469 110.949219 Z M 185.730469 108.660156 "/>
<path style=" stroke:none;fill-rule:nonzero;fill:rgb(24.705882%,23.921569%,33.725491%);fill-opacity:1;" d="M 165.394531 73.796875 L 169.335938 73.796875 C 177.429688 73.796875 183.992188 80.375 183.992188 88.488281 L 165.394531 88.488281 Z M 165.394531 73.796875 "/>
<path style=" stroke:none;fill-rule:nonzero;fill:rgb(24.705882%,23.921569%,33.725491%);fill-opacity:1;" d="M 46.023438 33.90625 L 49.964844 33.90625 C 58.058594 33.90625 64.621094 40.484375 64.621094 48.597656 L 46.023438 48.597656 Z M 46.023438 33.90625 "/>
<path style=" stroke:none;fill-rule:nonzero;fill:rgb(24.705882%,23.921569%,33.725491%);fill-opacity:1;" d="M 109.023438 70.804688 L 112.964844 70.804688 C 121.058594 70.804688 127.621094 77.382812 127.621094 85.496094 L 109.023438 85.496094 Z M 109.023438 70.804688 "/>
<path style=" stroke:none;fill-rule:nonzero;fill:rgb(24.705882%,23.921569%,33.725491%);fill-opacity:1;" d="M 165.394531 93.988281 L 183.992188 93.988281 L 183.992188 99.488281 L 165.394531 99.488281 Z M 165.394531 93.988281 "/>
<path style=" stroke:none;fill-rule:nonzero;fill:rgb(24.705882%,23.921569%,33.725491%);fill-opacity:1;" d="M 0.953125 116.910156 L 189.960938 116.910156 L 189.960938 117.578125 L 0.953125 117.578125 Z M 0.953125 116.910156 "/>
<path style=" stroke:none;fill-rule:nonzero;fill:rgb(24.705882%,23.921569%,33.725491%);fill-opacity:1;" d="M 17.722656 90.648438 L 18.386719 90.648438 L 18.386719 116.910156 L 17.722656 116.910156 Z M 17.722656 90.648438 "/>
<path style=" stroke:none;fill-rule:nonzero;fill:rgb(47.450981%,46.27451%,19.215687%);fill-opacity:1;" d="M 24.507812 93.996094 C 24.550781 103.179688 18.105469 110.652344 18.105469 110.652344 C 18.105469 110.652344 9.851562 103.078125 11.550781 94.054688 C 13.257812 84.980469 18.578125 77.4375 17.953125 77.398438 C 17.953125 77.398438 24.464844 84.8125 24.507812 93.996094 Z M 24.507812 93.996094 "/>
<path style=" stroke:none;fill-rule:nonzero;fill:rgb(24.705882%,23.921569%,33.725491%);fill-opacity:1;" d="M 84.042969 90.648438 L 84.703125 90.648438 L 84.703125 116.910156 L 84.042969 116.910156 Z M 84.042969 90.648438 "/>
<path style=" stroke:none;fill-rule:nonzero;fill:rgb(47.450981%,46.27451%,19.215687%);fill-opacity:1;" d="M 90.824219 93.996094 C 91.421875 103.160156 84.421875 110.652344 84.421875 110.652344 C 84.421875 110.652344 77.910156 103.238281 77.867188 94.054688 C 77.824219 84.875 84.269531 77.398438 84.269531 77.398438 C 83.640625 79.917969 90.339844 86.582031 90.824219 93.996094 Z M 90.824219 93.996094 "/>
<path style=" stroke:none;fill-rule:nonzero;fill:rgb(24.705882%,23.921569%,33.725491%);fill-opacity:1;" d="M 41.617188 47.964844 L 70.425781 46.550781 L 82.507812 56.660156 L 80.371094 58.59375 L 61.238281 58.164062 Z M 41.617188 47.964844 "/>
<path style=" stroke:none;fill-rule:nonzero;fill:rgb(24.705882%,23.921569%,33.725491%);fill-opacity:1;" d="M 12.875 94.886719 L 11.324219 96.292969 L 11.132812 96.464844 L 10.738281 96.824219 L 0.953125 96.601562 L 0.953125 85.015625 C 0.636719 84.945312 0.316406 84.878906 0 84.816406 L 0.792969 84.777344 L 0.953125 84.914062 L 2.46875 86.179688 L 6.78125 89.789062 L 11.59375 93.816406 Z M 12.875 94.886719 "/>
<path style=" stroke:none;fill-rule:nonzero;fill:rgb(24.705882%,23.921569%,33.725491%);fill-opacity:1;" d="M 104.621094 86.191406 L 133.425781 84.777344 L 145.511719 94.890625 L 143.375 96.824219 L 124.238281 96.390625 Z M 104.621094 86.191406 "/>
</g>
</svg>
