<?xml version="1.0" encoding="UTF-8"?>
<svg xmlns="http://www.w3.org/2000/svg" xmlns:xlink="http://www.w3.org/1999/xlink" width="140px" height="120px" viewBox="0 0 240 120" version="1.1">
<defs>
<filter id="alpha" filterUnits="objectBoundingBox" x="0%" y="0%" width="100%" height="100%">
  <feColorMatrix type="matrix" in="SourceGraphic" values="0 0 0 0 1 0 0 0 0 1 0 0 0 0 1 0 0 0 1 0"/>
</filter>
<mask id="mask0">
  <g filter="url(#alpha)">
<rect x="0" y="0" width="240" height="120" style="fill:rgb(0%,0%,0%);fill-opacity:0.2;stroke:none;"/>
  </g>
</mask>
<clipPath id="clip1">
  <rect x="0" y="0" width="240" height="121"/>
</clipPath>
<g id="surface5" clip-path="url(#clip1)">
<path style=" stroke:none;fill-rule:nonzero;fill:rgb(0%,0%,0%);fill-opacity:1;" d="M 56.816406 78.402344 C 54.542969 83.738281 56.460938 89.9375 61.339844 93.050781 C 66.21875 96.160156 72.628906 95.261719 76.476562 90.929688 C 74.636719 95.242188 70.4375 98.058594 65.765625 98.113281 C 61.089844 98.167969 56.824219 95.453125 54.890625 91.183594 C 52.953125 86.917969 53.707031 81.90625 56.816406 78.402344 Z M 56.816406 78.402344 "/>
</g>
<mask id="mask1">
  <g filter="url(#alpha)">
<rect x="0" y="0" width="240" height="120" style="fill:rgb(0%,0%,0%);fill-opacity:0.2;stroke:none;"/>
  </g>
</mask>
<clipPath id="clip2">
  <rect x="0" y="0" width="240" height="121"/>
</clipPath>
<g id="surface8" clip-path="url(#clip2)">
<path style=" stroke:none;fill-rule:nonzero;fill:rgb(0%,0%,0%);fill-opacity:1;" d="M 24.097656 36.269531 C 19.515625 47.023438 23.375 59.527344 33.214844 65.796875 C 43.054688 72.066406 55.976562 70.257812 63.730469 61.527344 C 60.027344 70.21875 51.558594 75.898438 42.136719 76.011719 C 32.710938 76.121094 24.113281 70.640625 20.207031 62.039062 C 16.304688 53.433594 17.828125 43.328125 24.097656 36.269531 Z M 24.097656 36.269531 "/>
</g>
<mask id="mask2">
  <g filter="url(#alpha)">
<rect x="0" y="0" width="240" height="120" style="fill:rgb(0%,0%,0%);fill-opacity:0.301961;stroke:none;"/>
  </g>
</mask>
<clipPath id="clip3">
  <rect x="0" y="0" width="240" height="121"/>
</clipPath>
<g id="surface11" clip-path="url(#clip3)">
<path style=" stroke:none;fill-rule:nonzero;fill:rgb(0%,0%,0%);fill-opacity:1;" d="M 137.265625 63.015625 C 128.609375 55.683594 127 42.914062 133.574219 33.652344 C 133.15625 34.074219 132.753906 34.515625 132.367188 34.972656 C 124.613281 44.191406 125.777344 57.972656 134.964844 65.75 C 144.152344 73.53125 157.886719 72.363281 165.640625 63.144531 C 166.027344 62.683594 166.394531 62.210938 166.734375 61.726562 C 158.742188 69.785156 145.925781 70.34375 137.265625 63.015625 Z M 137.265625 63.015625 "/>
</g>
</defs>
<g id="surface1">
<path style=" stroke:none;fill-rule:nonzero;fill:rgb(89.411765%,89.411765%,89.411765%);fill-opacity:1;" d="M 77.324219 86.308594 C 77.324219 79.773438 72.042969 74.472656 65.527344 74.472656 C 59.011719 74.472656 53.730469 79.773438 53.730469 86.308594 C 53.730469 92.847656 59.011719 98.144531 65.527344 98.144531 C 72.042969 98.144531 77.324219 92.847656 77.324219 86.308594 Z M 77.324219 86.308594 "/>
<use xlink:href="#surface5" mask="url(#mask0)"/>
<path style=" stroke:none;fill-rule:nonzero;fill:rgb(24.705882%,23.921569%,33.725491%);fill-opacity:1;" d="M 65.558594 86.308594 L 65.59375 86.308594 L 66.175781 119.867188 L 64.945312 119.867188 Z M 65.558594 86.308594 "/>
<path style=" stroke:none;fill-rule:nonzero;fill:rgb(89.411765%,89.411765%,89.411765%);fill-opacity:1;" d="M 65.445312 52.207031 C 65.445312 39.027344 54.792969 28.34375 41.660156 28.34375 C 28.523438 28.34375 17.875 39.027344 17.875 52.207031 C 17.875 65.386719 28.523438 76.074219 41.660156 76.074219 C 54.792969 76.074219 65.445312 65.386719 65.445312 52.207031 Z M 65.445312 52.207031 "/>
<use xlink:href="#surface8" mask="url(#mask1)"/>
<path style=" stroke:none;fill-rule:nonzero;fill:rgb(24.705882%,23.921569%,33.725491%);fill-opacity:1;" d="M 41.722656 52.207031 L 41.789062 52.207031 L 42.964844 119.867188 L 40.480469 119.867188 Z M 41.722656 52.207031 "/>
<path style=" stroke:none;fill-rule:nonzero;fill:rgb(94.117647%,94.117647%,94.117647%);fill-opacity:1;" d="M 89.453125 84.847656 L 198.476562 84.847656 L 198.476562 117.273438 L 89.453125 117.273438 Z M 89.453125 84.847656 "/>
<path style=" stroke:none;fill-rule:nonzero;fill:rgb(79.215688%,79.215688%,79.215688%);fill-opacity:1;" d="M 137.609375 91.550781 L 150.320312 91.550781 L 150.320312 117.273438 L 137.609375 117.273438 Z M 137.609375 91.550781 "/>
<path style=" stroke:none;fill-rule:nonzero;fill:rgb(94.117647%,94.117647%,94.117647%);fill-opacity:1;" d="M 95.8125 46.585938 L 192.121094 46.585938 L 192.121094 76.417969 L 95.8125 76.417969 Z M 95.8125 46.585938 "/>
<path style=" stroke:none;fill-rule:nonzero;fill:rgb(79.215688%,79.215688%,79.215688%);fill-opacity:1;" d="M 201.886719 48.421875 L 86.046875 48.421875 C 85.652344 48.421875 85.292969 48.179688 85.148438 47.8125 C 85 47.445312 85.089844 47.023438 85.375 46.75 L 117.035156 16.21875 L 117.035156 2.917969 C 117.035156 2.382812 117.46875 1.945312 118.003906 1.945312 L 124.25 1.945312 C 124.785156 1.945312 125.21875 2.382812 125.21875 2.917969 L 125.21875 8.320312 L 127.613281 6.015625 C 135.730469 -1.8125 148.492188 -2.027344 156.867188 5.527344 L 202.53125 46.726562 C 202.832031 46.996094 202.933594 47.421875 202.789062 47.796875 C 202.644531 48.175781 202.285156 48.421875 201.886719 48.421875 Z M 201.886719 48.421875 "/>
<path style=" stroke:none;fill-rule:nonzero;fill:rgb(100%,100%,100%);fill-opacity:1;" d="M 121.234375 54.152344 C 124.625 54.152344 127.375 56.910156 127.375 60.3125 L 127.375 68.632812 L 115.09375 68.632812 L 115.09375 60.3125 C 115.09375 56.910156 117.84375 54.152344 121.234375 54.152344 Z M 121.234375 54.152344 "/>
<path style=" stroke:none;fill-rule:nonzero;fill:rgb(100%,100%,100%);fill-opacity:1;" d="M 143.964844 54.257812 C 147.355469 54.257812 150.105469 57.019531 150.105469 60.421875 L 150.105469 68.742188 L 137.824219 68.742188 L 137.824219 60.421875 C 137.824219 57.019531 140.574219 54.257812 143.964844 54.257812 Z M 143.964844 54.257812 "/>
<path style=" stroke:none;fill-rule:nonzero;fill:rgb(100%,100%,100%);fill-opacity:1;" d="M 166.695312 54.367188 C 170.085938 54.367188 172.835938 57.125 172.835938 60.527344 L 172.835938 68.851562 L 160.554688 68.851562 L 160.554688 60.527344 C 160.554688 57.125 163.304688 54.367188 166.695312 54.367188 Z M 166.695312 54.367188 "/>
<path style=" stroke:none;fill-rule:nonzero;fill:rgb(100%,100%,100%);fill-opacity:1;" d="M 175.746094 91.226562 C 179.136719 91.226562 181.886719 93.984375 181.886719 97.386719 L 181.886719 105.707031 L 169.605469 105.707031 L 169.605469 97.386719 C 169.605469 93.984375 172.355469 91.226562 175.746094 91.226562 Z M 175.746094 91.226562 "/>
<path style=" stroke:none;fill-rule:nonzero;fill:rgb(100%,100%,100%);fill-opacity:1;" d="M 114.988281 91.226562 C 118.378906 91.226562 121.128906 93.984375 121.128906 97.386719 L 121.128906 105.707031 L 108.847656 105.707031 L 108.847656 97.386719 C 108.847656 93.984375 111.59375 91.226562 114.988281 91.226562 Z M 114.988281 91.226562 "/>
<path style=" stroke:none;fill-rule:nonzero;fill:rgb(79.215688%,79.215688%,79.215688%);fill-opacity:1;" d="M 214.40625 85.355469 L 193.953125 76.273438 C 193.84375 76.226562 193.722656 76.199219 193.605469 76.199219 L 96.136719 76.199219 C 96.027344 76.199219 95.914062 76.222656 95.8125 76.265625 L 73.550781 85.34375 C 73.167969 85.5 72.949219 85.90625 73.03125 86.3125 C 73.109375 86.714844 73.464844 87.007812 73.875 87.007812 L 79.652344 87.007812 L 79.652344 116.839844 L 79.003906 116.839844 L 79.003906 119.867188 L 208.925781 119.867188 L 208.925781 116.839844 L 207.847656 116.839844 L 207.847656 87.007812 L 214.054688 87.007812 C 214.464844 87.007812 214.816406 86.722656 214.898438 86.324219 C 214.984375 85.921875 214.777344 85.519531 214.40625 85.355469 Z M 206.125 116.839844 L 81.375 116.839844 L 81.375 87.007812 L 206.125 87.007812 Z M 206.125 116.839844 "/>
<path style=" stroke:none;fill-rule:nonzero;fill:rgb(79.215688%,79.215688%,79.215688%);fill-opacity:1;" d="M 113.15625 67.445312 L 128.882812 67.445312 L 128.882812 70.039062 L 113.15625 70.039062 Z M 113.15625 67.445312 "/>
<path style=" stroke:none;fill-rule:nonzero;fill:rgb(79.215688%,79.215688%,79.215688%);fill-opacity:1;" d="M 136.210938 67.445312 L 151.9375 67.445312 L 151.9375 70.039062 L 136.210938 70.039062 Z M 136.210938 67.445312 "/>
<path style=" stroke:none;fill-rule:nonzero;fill:rgb(79.215688%,79.215688%,79.215688%);fill-opacity:1;" d="M 159.261719 67.445312 L 174.992188 67.445312 L 174.992188 70.039062 L 159.261719 70.039062 Z M 159.261719 67.445312 "/>
<path style=" stroke:none;fill-rule:nonzero;fill:rgb(79.215688%,79.215688%,79.215688%);fill-opacity:1;" d="M 167.882812 104.84375 L 183.609375 104.84375 L 183.609375 107.4375 L 167.882812 107.4375 Z M 167.882812 104.84375 "/>
<path style=" stroke:none;fill-rule:nonzero;fill:rgb(79.215688%,79.215688%,79.215688%);fill-opacity:1;" d="M 106.90625 104.84375 L 122.636719 104.84375 L 122.636719 107.4375 L 106.90625 107.4375 Z M 106.90625 104.84375 "/>
<path style=" stroke:none;fill-rule:nonzero;fill:rgb(24.705882%,23.921569%,33.725491%);fill-opacity:1;" d="M 239.734375 120 L 0.265625 120 C 0.117188 120 0 119.882812 0 119.734375 C 0 119.589844 0.117188 119.46875 0.265625 119.46875 L 239.734375 119.46875 C 239.882812 119.46875 240 119.589844 240 119.734375 C 240 119.882812 239.882812 120 239.734375 120 Z M 239.734375 120 "/>
<path style=" stroke:none;fill-rule:nonzero;fill:rgb(94.117647%,94.117647%,94.117647%);fill-opacity:1;" d="M 179.503906 46.140625 C 179.503906 46.308594 179.5 46.480469 179.496094 46.652344 C 179.496094 46.855469 179.488281 47.058594 179.480469 47.261719 C 179.472656 47.4375 179.464844 47.613281 179.457031 47.789062 C 179.421875 48.375 179.375 48.957031 179.304688 49.542969 C 179.289062 49.691406 179.269531 49.835938 179.25 49.984375 C 179.234375 50.097656 179.21875 50.214844 179.199219 50.332031 C 179.179688 50.460938 179.160156 50.589844 179.140625 50.71875 C 179.097656 50.996094 179.050781 51.273438 179 51.546875 C 178.972656 51.683594 178.945312 51.824219 178.917969 51.960938 C 178.859375 52.234375 178.800781 52.507812 178.738281 52.78125 C 178.730469 52.800781 178.726562 52.828125 178.722656 52.847656 C 178.691406 52.984375 178.65625 53.117188 178.625 53.25 C 178.613281 53.289062 178.605469 53.328125 178.59375 53.367188 C 178.566406 53.46875 178.542969 53.566406 178.515625 53.667969 C 178.476562 53.808594 178.441406 53.945312 178.402344 54.085938 C 178.339844 54.304688 178.273438 54.519531 178.210938 54.738281 C 178.199219 54.757812 178.195312 54.78125 178.1875 54.804688 C 178.0625 55.214844 177.925781 55.621094 177.777344 56.023438 C 177.703125 56.234375 177.621094 56.449219 177.539062 56.664062 C 177.457031 56.875 177.371094 57.085938 177.285156 57.296875 C 177.199219 57.5 177.113281 57.703125 177.027344 57.90625 C 177.003906 57.953125 176.984375 58 176.960938 58.046875 C 176.867188 58.257812 176.773438 58.460938 176.675781 58.664062 C 176.671875 58.667969 176.671875 58.671875 176.667969 58.675781 C 176.59375 58.839844 176.511719 59.003906 176.429688 59.164062 C 176.34375 59.335938 176.261719 59.496094 176.179688 59.652344 L 176.042969 59.910156 L 176.027344 59.9375 C 175.859375 60.253906 175.683594 60.566406 175.5 60.875 C 175.460938 60.945312 175.421875 61.015625 175.382812 61.082031 C 175.339844 61.148438 175.300781 61.21875 175.257812 61.285156 C 175.230469 61.332031 175.203125 61.378906 175.171875 61.429688 C 175.113281 61.519531 175.058594 61.609375 175 61.699219 C 174.992188 61.71875 174.976562 61.738281 174.964844 61.757812 C 174.867188 61.914062 174.765625 62.066406 174.664062 62.222656 C 174.542969 62.410156 174.414062 62.597656 174.285156 62.78125 L 171.417969 67.386719 L 171.292969 67.28125 L 171.261719 67.25 L 171.257812 67.25 L 171.144531 67.15625 L 170.832031 66.890625 C 170.738281 66.984375 170.644531 67.074219 170.550781 67.164062 C 170.511719 67.203125 170.472656 67.238281 170.4375 67.273438 C 170.40625 67.300781 170.378906 67.328125 170.351562 67.355469 C 165.394531 72.210938 158.800781 75.023438 151.875 75.234375 L 151.867188 75.234375 C 146.625 75.378906 141.433594 74.148438 136.808594 71.667969 C 136.707031 71.617188 136.605469 71.5625 136.507812 71.5 C 135.902344 71.171875 135.316406 70.828125 134.738281 70.457031 C 134.734375 70.453125 134.730469 70.453125 134.730469 70.449219 C 134.058594 69.972656 133.402344 69.464844 132.765625 68.925781 C 125.816406 63.046875 122.011719 54.246094 122.484375 45.140625 C 122.496094 44.960938 122.503906 44.785156 122.519531 44.609375 C 122.558594 43.96875 122.625 43.328125 122.714844 42.695312 C 122.738281 42.515625 122.761719 42.339844 122.789062 42.164062 L 179.234375 42.164062 C 179.34375 42.976562 179.421875 43.789062 179.464844 44.609375 C 179.488281 45.121094 179.503906 45.628906 179.503906 46.140625 Z M 179.503906 46.140625 "/>
<path style=" stroke:none;fill-rule:nonzero;fill:rgb(47.450981%,46.27451%,19.215687%);fill-opacity:1;" d="M 179.234375 42.164062 C 177.132812 28.152344 165.132812 17.789062 151.011719 17.789062 C 136.890625 17.789062 124.890625 28.152344 122.789062 42.164062 C 122.761719 42.339844 122.738281 42.515625 122.714844 42.695312 C 122.625 43.328125 122.5625 43.96875 122.519531 44.609375 L 179.464844 44.609375 C 179.421875 43.789062 179.34375 42.976562 179.234375 42.164062 Z M 179.234375 42.164062 "/>
<path style=" stroke:none;fill-rule:nonzero;fill:rgb(47.450981%,46.27451%,19.215687%);fill-opacity:1;" d="M 152.859375 71.667969 L 136.507812 71.667969 L 136.507812 58.542969 C 136.808594 52.546875 141.917969 52.0625 146.71875 52.382812 C 150.109375 52.382812 152.859375 55.140625 152.859375 58.542969 Z M 152.859375 71.667969 "/>
<path style=" stroke:none;fill-rule:nonzero;fill:rgb(24.705882%,23.921569%,33.725491%);fill-opacity:1;" d="M 136.507812 62.335938 L 136.507812 62.339844 C 136.507812 62.339844 136.507812 62.339844 136.511719 62.339844 Z M 129.929688 42.164062 C 129.917969 42.230469 129.90625 42.296875 129.894531 42.363281 C 129.90625 42.296875 129.917969 42.230469 129.933594 42.164062 Z M 129.601562 44.609375 C 129.59375 44.710938 129.585938 44.8125 129.582031 44.910156 C 129.585938 44.8125 129.59375 44.710938 129.605469 44.609375 C 129.605469 44.589844 129.605469 44.570312 129.605469 44.554688 C 129.605469 44.570312 129.605469 44.589844 129.601562 44.609375 Z M 136.507812 62.339844 C 136.507812 62.339844 136.507812 62.339844 136.511719 62.339844 L 136.507812 62.335938 Z M 129.929688 42.164062 C 129.917969 42.230469 129.90625 42.296875 129.894531 42.363281 C 129.90625 42.296875 129.917969 42.230469 129.933594 42.164062 Z M 129.582031 44.910156 C 129.585938 44.8125 129.59375 44.710938 129.605469 44.609375 C 129.605469 44.589844 129.605469 44.570312 129.605469 44.554688 C 129.605469 44.570312 129.605469 44.589844 129.601562 44.609375 C 129.59375 44.710938 129.585938 44.8125 129.582031 44.910156 Z M 211.148438 93.640625 C 211.097656 93.585938 211.042969 93.535156 210.984375 93.488281 L 210.984375 93.484375 L 197.90625 82.414062 L 197.570312 82.128906 L 196.285156 81.042969 L 195.960938 80.769531 L 194.128906 79.214844 L 193.628906 78.792969 L 192.589844 77.914062 L 192.058594 77.460938 L 187.054688 73.226562 L 184.183594 70.796875 L 183.796875 70.472656 L 175.339844 63.3125 C 175.472656 63.125 175.597656 62.941406 175.722656 62.753906 C 175.820312 62.597656 175.921875 62.441406 176.023438 62.285156 C 176.035156 62.265625 176.046875 62.25 176.058594 62.230469 C 176.113281 62.140625 176.171875 62.046875 176.226562 61.957031 C 176.257812 61.910156 176.285156 61.863281 176.3125 61.816406 C 176.355469 61.75 176.398438 61.679688 176.4375 61.609375 C 176.476562 61.542969 176.515625 61.476562 176.554688 61.40625 C 176.742188 61.097656 176.914062 60.785156 177.085938 60.46875 L 177.101562 60.441406 L 177.234375 60.183594 C 177.320312 60.027344 177.402344 59.867188 177.480469 59.707031 C 177.566406 59.535156 177.648438 59.371094 177.726562 59.207031 C 177.726562 59.203125 177.726562 59.199219 177.730469 59.195312 C 177.828125 58.992188 177.921875 58.785156 178.015625 58.578125 C 178.039062 58.53125 178.0625 58.480469 178.082031 58.433594 C 178.167969 58.234375 178.257812 58.027344 178.339844 57.824219 C 178.429688 57.617188 178.511719 57.402344 178.59375 57.191406 C 178.675781 56.980469 178.757812 56.765625 178.835938 56.554688 C 178.980469 56.148438 179.117188 55.742188 179.242188 55.335938 C 179.25 55.3125 179.257812 55.289062 179.265625 55.265625 C 179.332031 55.050781 179.394531 54.835938 179.457031 54.617188 C 179.496094 54.476562 179.535156 54.339844 179.570312 54.199219 C 179.597656 54.097656 179.625 53.996094 179.648438 53.898438 C 179.660156 53.855469 179.667969 53.820312 179.679688 53.78125 C 179.714844 53.644531 179.746094 53.511719 179.777344 53.378906 C 179.78125 53.355469 179.789062 53.332031 179.792969 53.3125 C 179.855469 53.039062 179.917969 52.761719 179.972656 52.488281 C 180 52.351562 180.027344 52.214844 180.054688 52.078125 C 180.105469 51.800781 180.15625 51.527344 180.195312 51.25 C 180.21875 51.121094 180.238281 50.992188 180.253906 50.859375 C 180.273438 50.746094 180.289062 50.628906 180.304688 50.515625 C 180.328125 50.367188 180.34375 50.21875 180.359375 50.070312 C 180.429688 49.484375 180.480469 48.902344 180.511719 48.316406 C 180.523438 48.144531 180.53125 47.96875 180.539062 47.789062 C 180.546875 47.585938 180.550781 47.386719 180.554688 47.179688 C 180.554688 47.011719 180.558594 46.839844 180.558594 46.671875 C 180.558594 46.160156 180.546875 45.648438 180.519531 45.140625 C 180.476562 44.320312 180.398438 43.503906 180.289062 42.695312 C 178.335938 28.355469 166.191406 17.628906 151.769531 17.496094 C 137.34375 17.363281 125.007812 27.863281 122.789062 42.164062 C 122.761719 42.339844 122.738281 42.515625 122.714844 42.695312 C 122.625 43.328125 122.5625 43.96875 122.519531 44.609375 C 122.503906 44.785156 122.492188 44.960938 122.484375 45.140625 C 122.011719 54.246094 125.816406 63.046875 132.765625 68.925781 C 133.402344 69.464844 134.058594 69.972656 134.730469 70.449219 C 134.730469 70.453125 134.734375 70.453125 134.738281 70.457031 C 134.960938 70.613281 135.1875 70.769531 135.414062 70.925781 C 135.773438 71.164062 136.140625 71.394531 136.507812 71.617188 C 136.535156 71.632812 136.5625 71.652344 136.59375 71.667969 C 136.910156 71.859375 137.230469 72.042969 137.550781 72.21875 C 138.742188 72.875 139.976562 73.445312 141.246094 73.925781 C 144.972656 75.332031 148.945312 75.957031 152.921875 75.765625 L 152.929688 75.765625 C 157.574219 75.539062 162.09375 74.195312 166.109375 71.851562 C 166.691406 71.511719 167.269531 71.148438 167.832031 70.761719 C 167.96875 70.667969 168.113281 70.570312 168.25 70.472656 C 168.417969 70.351562 168.585938 70.226562 168.757812 70.101562 C 168.757812 70.101562 168.757812 70.101562 168.761719 70.101562 C 168.773438 70.089844 168.789062 70.082031 168.800781 70.070312 C 168.914062 69.984375 169.03125 69.898438 169.140625 69.8125 C 169.171875 69.789062 169.199219 69.769531 169.230469 69.746094 C 169.316406 69.679688 169.378906 69.625 169.445312 69.574219 C 169.511719 69.527344 169.574219 69.472656 169.640625 69.417969 C 169.652344 69.414062 169.664062 69.40625 169.671875 69.394531 C 169.746094 69.335938 169.820312 69.277344 169.894531 69.214844 C 169.972656 69.15625 170.046875 69.089844 170.117188 69.03125 C 170.191406 68.96875 170.261719 68.910156 170.335938 68.84375 C 170.398438 68.792969 170.464844 68.738281 170.527344 68.679688 C 170.550781 68.664062 170.566406 68.644531 170.589844 68.625 C 170.703125 68.53125 170.789062 68.453125 170.871094 68.375 C 170.894531 68.359375 170.910156 68.339844 170.933594 68.320312 C 171.0625 68.203125 171.191406 68.085938 171.316406 67.964844 C 171.347656 67.9375 171.378906 67.910156 171.40625 67.882812 C 171.4375 67.855469 171.464844 67.832031 171.492188 67.804688 C 171.527344 67.765625 171.570312 67.734375 171.605469 67.695312 C 171.699219 67.605469 171.792969 67.511719 171.886719 67.417969 L 172.199219 67.683594 L 172.3125 67.78125 L 172.316406 67.78125 L 172.351562 67.8125 L 172.472656 67.914062 L 174.316406 69.476562 L 174.355469 69.511719 L 174.386719 69.535156 L 174.597656 69.714844 L 175.015625 70.070312 L 175.429688 70.421875 L 175.492188 70.472656 L 177.433594 72.113281 L 177.703125 72.339844 L 179.574219 73.925781 L 189.265625 82.128906 L 189.601562 82.414062 L 202.863281 93.640625 L 206.265625 96.523438 L 207.527344 97.59375 C 208.070312 98.050781 208.773438 98.277344 209.480469 98.21875 C 210.1875 98.160156 210.84375 97.820312 211.300781 97.273438 C 211.492188 97.050781 211.644531 96.796875 211.75 96.523438 C 212.140625 95.527344 211.90625 94.394531 211.148438 93.640625 Z M 134.667969 32.234375 C 140.074219 25.808594 148.679688 23.066406 156.789062 25.183594 C 164.902344 27.304688 171.078125 33.90625 172.675781 42.164062 C 172.710938 42.339844 172.742188 42.515625 172.769531 42.695312 C 172.878906 43.328125 172.957031 43.96875 173.003906 44.609375 C 173.019531 44.785156 173.03125 44.960938 173.039062 45.140625 C 173.0625 45.535156 173.074219 45.9375 173.074219 46.332031 C 173.074219 48.742188 172.675781 51.136719 171.894531 53.417969 C 171.023438 55.976562 169.683594 58.34375 167.945312 60.40625 C 167.90625 60.449219 167.871094 60.496094 167.832031 60.539062 C 167.480469 60.949219 167.113281 61.347656 166.738281 61.726562 C 166.734375 61.730469 166.730469 61.734375 166.730469 61.738281 C 166.601562 61.867188 166.46875 62 166.335938 62.121094 C 166.066406 62.382812 165.792969 62.632812 165.511719 62.871094 C 165.09375 63.238281 164.660156 63.585938 164.222656 63.90625 C 164.074219 64.015625 163.925781 64.121094 163.773438 64.226562 C 163.625 64.332031 163.476562 64.433594 163.324219 64.535156 C 163.023438 64.738281 162.71875 64.929688 162.410156 65.113281 C 162.257812 65.207031 162.097656 65.296875 161.941406 65.382812 C 161.785156 65.472656 161.628906 65.558594 161.46875 65.640625 C 161.3125 65.722656 161.152344 65.804688 160.992188 65.886719 C 160.671875 66.046875 160.351562 66.199219 160.023438 66.339844 C 159.859375 66.414062 159.695312 66.480469 159.53125 66.546875 C 159.429688 66.589844 159.328125 66.628906 159.226562 66.667969 C 159.183594 66.6875 159.144531 66.703125 159.101562 66.714844 C 159.046875 66.738281 158.992188 66.761719 158.933594 66.777344 C 158.917969 66.785156 158.898438 66.792969 158.878906 66.800781 C 158.765625 66.84375 158.65625 66.886719 158.539062 66.925781 C 158.371094 66.984375 158.207031 67.042969 158.039062 67.09375 C 157.867188 67.148438 157.703125 67.203125 157.53125 67.25 C 157.363281 67.304688 157.191406 67.351562 157.023438 67.394531 C 156.851562 67.445312 156.683594 67.488281 156.511719 67.527344 C 156.328125 67.578125 156.148438 67.617188 155.960938 67.660156 C 155.800781 67.695312 155.640625 67.726562 155.480469 67.757812 C 155.332031 67.789062 155.179688 67.816406 155.027344 67.839844 C 154.816406 67.878906 154.605469 67.914062 154.390625 67.941406 C 154.273438 67.960938 154.160156 67.976562 154.046875 67.988281 C 153.996094 67.996094 153.949219 68 153.898438 68.003906 C 153.753906 68.027344 153.605469 68.042969 153.460938 68.054688 C 153.417969 68.058594 153.382812 68.0625 153.34375 68.066406 C 153.183594 68.082031 153.019531 68.09375 152.859375 68.109375 C 152.515625 68.132812 152.171875 68.148438 151.824219 68.15625 C 151.652344 68.160156 151.472656 68.160156 151.300781 68.160156 C 151.125 68.160156 150.949219 68.160156 150.777344 68.152344 C 150.777344 68.152344 150.777344 68.15625 150.773438 68.152344 C 150.769531 68.15625 150.769531 68.15625 150.769531 68.152344 C 150.613281 68.152344 150.488281 68.148438 150.367188 68.140625 C 150.277344 68.136719 150.183594 68.136719 150.09375 68.128906 C 149.96875 68.121094 149.84375 68.113281 149.71875 68.101562 C 149.679688 68.101562 149.640625 68.097656 149.601562 68.09375 C 149.582031 68.09375 149.566406 68.09375 149.546875 68.089844 C 149.417969 68.078125 149.289062 68.070312 149.164062 68.054688 C 149.101562 68.050781 149.035156 68.046875 148.96875 68.039062 C 148.777344 68.015625 148.585938 67.992188 148.394531 67.964844 C 148.179688 67.9375 147.960938 67.90625 147.75 67.867188 C 147.648438 67.855469 147.550781 67.835938 147.453125 67.816406 C 147.324219 67.796875 147.195312 67.773438 147.0625 67.746094 C 146.929688 67.71875 146.796875 67.691406 146.660156 67.660156 C 146.550781 67.636719 146.441406 67.613281 146.332031 67.585938 C 146.28125 67.578125 146.226562 67.5625 146.175781 67.550781 C 145.898438 67.484375 145.625 67.410156 145.351562 67.332031 C 145.183594 67.285156 145.011719 67.234375 144.839844 67.179688 C 144.609375 67.109375 144.378906 67.03125 144.148438 66.949219 C 144.058594 66.921875 143.972656 66.890625 143.882812 66.855469 C 143.792969 66.828125 143.707031 66.792969 143.617188 66.757812 C 143.535156 66.726562 143.453125 66.695312 143.375 66.664062 C 143.242188 66.613281 143.113281 66.5625 142.984375 66.507812 C 142.714844 66.398438 142.453125 66.285156 142.191406 66.164062 C 142.046875 66.09375 141.898438 66.023438 141.753906 65.953125 C 141.179688 65.675781 140.613281 65.363281 140.058594 65.023438 C 139.921875 64.941406 139.785156 64.855469 139.648438 64.769531 C 139.476562 64.664062 139.308594 64.550781 139.144531 64.441406 C 139.050781 64.375 138.960938 64.316406 138.871094 64.25 C 138.707031 64.136719 138.542969 64.015625 138.378906 63.898438 C 138.296875 63.835938 138.210938 63.773438 138.128906 63.707031 C 137.835938 63.484375 137.550781 63.253906 137.265625 63.015625 C 137.132812 62.902344 136.996094 62.785156 136.863281 62.664062 C 136.808594 62.617188 136.753906 62.566406 136.699219 62.515625 C 136.636719 62.457031 136.570312 62.402344 136.511719 62.339844 L 136.507812 62.335938 C 136.414062 62.253906 136.320312 62.167969 136.230469 62.078125 C 136.089844 61.945312 135.953125 61.8125 135.820312 61.675781 C 135.683594 61.539062 135.554688 61.398438 135.421875 61.261719 C 135.292969 61.125 135.164062 60.984375 135.039062 60.839844 C 134.914062 60.699219 134.789062 60.554688 134.667969 60.410156 C 134.550781 60.273438 134.433594 60.128906 134.324219 59.988281 C 134.054688 59.65625 133.796875 59.316406 133.550781 58.96875 C 133.4375 58.8125 133.328125 58.652344 133.222656 58.488281 C 133.109375 58.324219 133.003906 58.160156 132.898438 57.992188 C 132.792969 57.824219 132.6875 57.65625 132.585938 57.484375 C 132.378906 57.132812 132.1875 56.792969 132.011719 56.449219 C 131.828125 56.097656 131.660156 55.746094 131.496094 55.386719 C 131.414062 55.210938 131.335938 55.03125 131.261719 54.851562 C 131.109375 54.488281 130.964844 54.125 130.835938 53.757812 C 130.769531 53.578125 130.707031 53.402344 130.648438 53.222656 C 130.515625 52.820312 130.40625 52.453125 130.304688 52.082031 C 130.304688 52.078125 130.304688 52.070312 130.300781 52.066406 C 130.25 51.882812 130.203125 51.699219 130.160156 51.515625 C 130.117188 51.355469 130.082031 51.191406 130.046875 51.027344 C 130.007812 50.84375 129.96875 50.664062 129.933594 50.476562 C 129.914062 50.382812 129.898438 50.285156 129.882812 50.191406 C 129.867188 50.109375 129.851562 50.027344 129.839844 49.949219 C 129.824219 49.871094 129.8125 49.789062 129.800781 49.707031 C 129.773438 49.542969 129.75 49.382812 129.726562 49.222656 C 129.703125 49.03125 129.679688 48.839844 129.660156 48.644531 C 129.636719 48.414062 129.613281 48.183594 129.597656 47.953125 C 129.582031 47.796875 129.574219 47.636719 129.566406 47.476562 C 129.558594 47.332031 129.550781 47.1875 129.550781 47.042969 C 129.546875 47.007812 129.546875 47.007812 129.550781 47.007812 C 129.546875 46.941406 129.542969 46.886719 129.542969 46.828125 C 129.539062 46.65625 129.535156 46.480469 129.535156 46.308594 C 129.535156 46.152344 129.539062 46 129.539062 45.84375 C 129.546875 45.625 129.554688 45.410156 129.566406 45.191406 C 129.566406 45.144531 129.570312 45.097656 129.574219 45.050781 C 129.574219 45.003906 129.578125 44.960938 129.582031 44.910156 C 129.585938 44.8125 129.59375 44.710938 129.605469 44.609375 C 129.605469 44.589844 129.605469 44.570312 129.605469 44.554688 C 129.613281 44.441406 129.625 44.324219 129.636719 44.210938 C 129.65625 43.984375 129.683594 43.753906 129.710938 43.527344 C 129.726562 43.410156 129.742188 43.296875 129.761719 43.183594 C 129.769531 43.105469 129.785156 43.023438 129.796875 42.941406 C 129.808594 42.859375 129.820312 42.777344 129.835938 42.695312 C 129.855469 42.585938 129.875 42.472656 129.894531 42.363281 C 129.90625 42.296875 129.917969 42.230469 129.933594 42.164062 C 129.980469 41.898438 130.039062 41.632812 130.097656 41.371094 C 130.160156 41.101562 130.226562 40.835938 130.300781 40.570312 C 130.371094 40.304688 130.453125 40.039062 130.535156 39.769531 C 130.574219 39.632812 130.617188 39.503906 130.664062 39.371094 C 130.753906 39.101562 130.84375 38.835938 130.949219 38.574219 C 130.996094 38.445312 131.046875 38.3125 131.101562 38.183594 C 131.207031 37.921875 131.316406 37.660156 131.429688 37.402344 C 131.488281 37.273438 131.546875 37.140625 131.609375 37.011719 C 131.730469 36.753906 131.855469 36.5 131.988281 36.246094 C 132.117188 35.988281 132.257812 35.738281 132.398438 35.488281 C 132.542969 35.238281 132.691406 34.992188 132.847656 34.746094 C 132.917969 34.621094 132.996094 34.5 133.078125 34.378906 C 133.238281 34.136719 133.402344 33.890625 133.574219 33.652344 C 133.914062 33.171875 134.28125 32.695312 134.667969 32.234375 Z M 129.601562 44.609375 C 129.59375 44.710938 129.585938 44.8125 129.582031 44.910156 C 129.585938 44.8125 129.59375 44.710938 129.605469 44.609375 C 129.605469 44.589844 129.605469 44.570312 129.605469 44.554688 C 129.605469 44.570312 129.605469 44.589844 129.601562 44.609375 Z M 129.929688 42.164062 C 129.917969 42.230469 129.90625 42.296875 129.894531 42.363281 C 129.90625 42.296875 129.917969 42.230469 129.933594 42.164062 Z M 136.507812 62.335938 L 136.507812 62.339844 C 136.507812 62.339844 136.507812 62.339844 136.511719 62.339844 Z M 136.507812 62.335938 "/>
<use xlink:href="#surface11" mask="url(#mask2)"/>
</g>
</svg>
