<?xml version="1.0" encoding="UTF-8"?>
<svg xmlns="http://www.w3.org/2000/svg" xmlns:xlink="http://www.w3.org/1999/xlink" width="140px" height="120px" viewBox="0 0 173 120" version="1.1">
<g id="surface1">
<path style=" stroke:none;fill-rule:nonzero;fill:rgb(18.431373%,18.039216%,25.490198%);fill-opacity:1;" d="M 65.199219 23.445312 C 63.882812 18.636719 74.511719 14.515625 77.300781 18.386719 C 77.691406 17.835938 79.125 17.5 79.78125 17.671875 C 80.441406 17.839844 80.992188 18.261719 81.535156 18.671875 C 82.277344 19.242188 83.046875 19.832031 83.5 20.652344 C 83.960938 21.46875 84.03125 22.582031 83.414062 23.292969 C 82.921875 23.855469 81.480469 24.21875 80.742188 24.367188 C 80.230469 24.472656 79.796875 24.558594 79.425781 24.617188 C 79.097656 24.136719 78.929688 23.539062 78.988281 22.953125 C 78.488281 23.285156 78.152344 23.851562 78.097656 24.453125 C 78.089844 24.578125 82.246094 39.882812 82.246094 39.882812 C 81.816406 40.136719 81.285156 40.371094 80.675781 40.585938 C 79.640625 39.023438 78.789062 37.179688 78.230469 35.253906 C 78.101562 36.445312 78.121094 37.738281 78.277344 39.050781 C 78.359375 39.75 78.480469 40.453125 78.632812 41.15625 C 73.695312 42.222656 66.265625 41.871094 63.03125 37.332031 C 63.03125 37.3125 63.03125 37.296875 63.03125 37.277344 C 63.007812 36.429688 61.847656 36.21875 61.539062 37.007812 C 61.460938 37.207031 61.386719 37.382812 61.324219 37.519531 C 60.382812 34.148438 61.601562 30.25 65.199219 23.445312 Z M 65.199219 23.445312 "/>
<path style=" stroke:none;fill-rule:nonzero;fill:rgb(100%,71.372551%,71.372551%);fill-opacity:1;" d="M 132.351562 61.558594 C 131.183594 62.945312 129.113281 63.121094 127.726562 61.953125 C 127.589844 61.839844 127.464844 61.714844 127.351562 61.582031 L 111.75 66.527344 L 109.324219 62.542969 L 127.894531 56.808594 C 129.351562 55.734375 131.40625 56.042969 132.480469 57.5 C 133.378906 58.71875 133.328125 60.398438 132.351562 61.558594 Z M 132.351562 61.558594 "/>
<path style=" stroke:none;fill-rule:nonzero;fill:rgb(47.450981%,46.27451%,19.215687%);fill-opacity:1;" d="M 77.101562 49.203125 C 77.101562 49.203125 84.011719 41.429688 87.019531 44.734375 C 90.03125 48.035156 99.417969 62.507812 99.417969 62.507812 L 121.335938 57.882812 L 123.457031 63.667969 L 98.570312 71.738281 C 96.699219 72.34375 94.648438 71.714844 93.4375 70.164062 Z M 77.101562 49.203125 "/>
<path style=" stroke:none;fill-rule:nonzero;fill:rgb(18.431373%,18.039216%,25.490198%);fill-opacity:1;" d="M 92.105469 120.078125 L 57.839844 120.078125 L 57.808594 119.808594 L 57.789062 119.632812 L 57.492188 117.132812 L 57.078125 113.578125 L 56.917969 112.207031 C 56.90625 112.140625 56.894531 112.074219 56.886719 112.003906 C 56.746094 111.113281 56.664062 110.21875 56.636719 109.328125 C 56.59375 108.101562 56.648438 106.875 56.78125 105.667969 L 56.78125 105.660156 C 56.851562 105.007812 56.941406 104.359375 57.054688 103.71875 C 57.199219 102.898438 57.371094 102.085938 57.570312 101.296875 C 57.796875 100.375 58.054688 99.480469 58.339844 98.617188 C 58.664062 97.609375 59.019531 96.640625 59.386719 95.726562 C 59.429688 95.628906 59.46875 95.53125 59.507812 95.433594 L 59.507812 95.429688 C 61.449219 90.699219 63.652344 87.46875 63.652344 87.46875 L 88.617188 87.46875 C 88.617188 87.46875 89.769531 92.539062 90.34375 96.726562 C 90.433594 97.386719 90.511719 98.023438 90.566406 98.617188 C 90.667969 99.714844 90.695312 100.65625 90.609375 101.296875 C 90.554688 101.691406 90.457031 101.972656 90.304688 102.101562 C 88.933594 103.277344 90.503906 105.765625 90.503906 105.765625 C 90.503906 105.765625 91.679688 107.566406 90.65625 108.578125 C 90.453125 108.777344 90.335938 109.039062 90.28125 109.328125 C 90.191406 109.808594 90.269531 110.363281 90.390625 110.855469 C 90.515625 111.351562 90.683594 111.78125 90.777344 112.003906 C 90.820312 112.101562 90.847656 112.15625 90.847656 112.15625 L 91.019531 113.535156 L 91.191406 114.859375 L 91.476562 117.132812 L 91.566406 117.535156 L 92.011719 119.632812 L 92.050781 119.808594 Z M 92.105469 120.078125 "/>
<path style=" stroke:none;fill-rule:nonzero;fill:rgb(47.450981%,46.27451%,19.215687%);fill-opacity:1;" d="M 74.796875 38.566406 L 64.320312 39.5 L 62.390625 45.515625 L 60.285156 45.820312 C 56.6875 46.339844 54.546875 50.113281 55.945312 53.46875 L 57.796875 57.917969 C 57.796875 57.917969 55.078125 66.316406 58.417969 69.84375 L 59.839844 85.390625 L 56.632812 95.636719 L 94.117188 96.847656 L 87.730469 83.992188 L 87.542969 76.011719 C 87.542969 76.011719 91.621094 61.589844 87.839844 57 L 86.363281 43.949219 L 78.675781 42.796875 Z M 74.796875 38.566406 "/>
<path style=" stroke:none;fill-rule:nonzero;fill:rgb(100%,71.372551%,71.372551%);fill-opacity:1;" d="M 75.414062 20.460938 C 70.757812 19.382812 66.105469 22.285156 65.027344 26.941406 C 63.949219 31.601562 66.847656 36.253906 71.503906 37.335938 C 76.160156 38.414062 80.8125 35.511719 81.890625 30.855469 C 82.972656 26.195312 80.070312 21.542969 75.414062 20.460938 Z M 75.414062 20.460938 "/>
<path style=" stroke:none;fill-rule:nonzero;fill:rgb(18.431373%,18.039216%,25.490198%);fill-opacity:1;" d="M 60.476562 24.117188 C 59.160156 19.3125 69.785156 15.191406 72.578125 19.0625 C 72.964844 18.511719 74.398438 18.175781 75.058594 18.347656 C 75.714844 18.515625 76.269531 18.9375 76.808594 19.34375 C 77.550781 19.914062 78.320312 20.507812 78.777344 21.328125 C 79.234375 22.144531 79.304688 23.257812 78.6875 23.96875 C 78.199219 24.53125 76.753906 24.894531 76.019531 25.042969 C 75.507812 25.148438 75.074219 25.234375 74.703125 25.292969 C 74.371094 24.8125 74.203125 24.214844 74.265625 23.628906 C 73.765625 23.960938 73.429688 24.527344 73.375 25.128906 C 73.363281 25.253906 77.519531 40.558594 77.519531 40.558594 C 77.09375 40.8125 76.5625 41.046875 75.953125 41.261719 C 74.914062 39.699219 74.066406 37.855469 73.503906 35.929688 C 73.378906 37.121094 73.398438 38.414062 73.550781 39.726562 C 73.632812 40.425781 73.753906 41.128906 73.910156 41.832031 C 68.96875 42.898438 61.539062 42.546875 58.308594 38.007812 C 58.304688 37.988281 58.304688 37.972656 58.304688 37.953125 C 58.28125 37.101562 57.125 36.890625 56.816406 37.683594 C 56.734375 37.882812 56.664062 38.054688 56.597656 38.195312 C 55.65625 34.824219 56.875 30.925781 60.476562 24.117188 Z M 60.476562 24.117188 "/>
<path style=" stroke:none;fill-rule:nonzero;fill:rgb(24.705882%,23.921569%,33.725491%);fill-opacity:1;" d="M 134.46875 119.808594 L 18.09375 119.808594 L 0.0351562 120.035156 L 126.679688 112.46875 C 130.902344 112.214844 134.46875 115.578125 134.46875 119.808594 Z M 134.46875 119.808594 "/>
<path style=" stroke:none;fill-rule:nonzero;fill:rgb(24.705882%,23.921569%,33.725491%);fill-opacity:1;" d="M 162.96875 119.632812 L 162.96875 120.078125 L 0 120.078125 L 0 0 L 0.445312 0 L 0.445312 119.632812 Z M 162.96875 119.632812 "/>
<path style=" stroke:none;fill-rule:nonzero;fill:rgb(47.450981%,46.27451%,19.215687%);fill-opacity:1;" d="M 145.53125 27.773438 L 115.867188 27.773438 C 115.183594 27.773438 114.628906 27.21875 114.628906 26.539062 C 114.628906 25.855469 115.183594 25.300781 115.867188 25.300781 L 145.53125 25.300781 C 146.214844 25.300781 146.769531 25.855469 146.769531 26.539062 C 146.769531 27.21875 146.214844 27.773438 145.53125 27.773438 Z M 145.53125 27.773438 "/>
<path style=" stroke:none;fill-rule:nonzero;fill:rgb(24.705882%,23.921569%,33.725491%);fill-opacity:1;" d="M 130.6875 31.761719 C 130.578125 31.488281 130.195312 31.488281 130.082031 31.761719 C 129.308594 33.667969 128.207031 35.804688 127.011719 37.4375 C 126.820312 37.699219 127.082031 38.050781 127.386719 37.9375 L 129.957031 37.007812 L 129.957031 52.910156 L 130.816406 52.910156 L 130.816406 37.007812 L 133.382812 37.9375 C 133.6875 38.050781 133.953125 37.699219 133.761719 37.4375 C 132.5625 35.804688 131.460938 33.667969 130.6875 31.761719 Z M 130.6875 31.761719 "/>
<path style=" stroke:none;fill-rule:nonzero;fill:rgb(94.901961%,94.901961%,94.901961%);fill-opacity:1;" d="M 172.246094 36.863281 L 153.960938 36.863281 C 153.539062 36.863281 153.195312 36.519531 153.195312 36.101562 C 153.195312 35.679688 153.539062 35.339844 153.960938 35.339844 L 172.246094 35.339844 C 172.667969 35.339844 173.011719 35.679688 173.011719 36.101562 C 173.011719 36.519531 172.667969 36.863281 172.246094 36.863281 Z M 172.246094 36.863281 "/>
<path style=" stroke:none;fill-rule:nonzero;fill:rgb(94.901961%,94.901961%,94.901961%);fill-opacity:1;" d="M 163.097656 39.320312 C 163.027344 39.152344 162.792969 39.152344 162.722656 39.320312 C 162.246094 40.496094 161.570312 41.816406 160.832031 42.820312 C 160.710938 42.980469 160.875 43.199219 161.0625 43.128906 L 162.644531 42.554688 L 162.644531 52.359375 L 163.175781 52.359375 L 163.175781 42.554688 L 164.757812 43.128906 C 164.945312 43.199219 165.109375 42.980469 164.992188 42.820312 C 164.253906 41.816406 163.574219 40.496094 163.097656 39.320312 Z M 163.097656 39.320312 "/>
<path style=" stroke:none;fill-rule:nonzero;fill:rgb(94.901961%,94.901961%,94.901961%);fill-opacity:1;" d="M 167.082031 57.84375 C 167.082031 55.644531 165.300781 53.867188 163.105469 53.867188 C 160.914062 53.867188 159.132812 55.644531 159.132812 57.84375 C 159.132812 60.039062 160.914062 61.816406 163.105469 61.816406 C 165.300781 61.816406 167.082031 60.039062 167.082031 57.84375 Z M 167.082031 57.84375 "/>
<path style=" stroke:none;fill-rule:nonzero;fill:rgb(94.901961%,94.901961%,94.901961%);fill-opacity:1;" d="M 113.613281 14.335938 L 95.328125 14.335938 C 94.90625 14.335938 94.5625 13.992188 94.5625 13.574219 C 94.5625 13.152344 94.90625 12.808594 95.328125 12.808594 L 113.613281 12.808594 C 114.035156 12.808594 114.378906 13.152344 114.378906 13.574219 C 114.378906 13.992188 114.035156 14.335938 113.613281 14.335938 Z M 113.613281 14.335938 "/>
<path style=" stroke:none;fill-rule:nonzero;fill:rgb(94.901961%,94.901961%,94.901961%);fill-opacity:1;" d="M 104.464844 16.792969 C 104.394531 16.625 104.160156 16.625 104.089844 16.792969 C 103.613281 17.96875 102.9375 19.285156 102.199219 20.292969 C 102.078125 20.453125 102.242188 20.667969 102.429688 20.601562 L 104.011719 20.027344 L 104.011719 29.832031 L 104.542969 29.832031 L 104.542969 20.027344 L 106.125 20.601562 C 106.3125 20.667969 106.476562 20.453125 106.359375 20.292969 C 105.621094 19.285156 104.941406 17.96875 104.464844 16.792969 Z M 104.464844 16.792969 "/>
<path style=" stroke:none;fill-rule:nonzero;fill:rgb(94.901961%,94.901961%,94.901961%);fill-opacity:1;" d="M 108.449219 35.3125 C 108.449219 33.117188 106.667969 31.339844 104.472656 31.339844 C 102.28125 31.339844 100.5 33.117188 100.5 35.3125 C 100.5 37.511719 102.28125 39.289062 104.472656 39.289062 C 106.667969 39.289062 108.449219 37.511719 108.449219 35.3125 Z M 108.449219 35.3125 "/>
<path style=" stroke:none;fill-rule:nonzero;fill:rgb(100%,71.372551%,71.372551%);fill-opacity:1;" d="M 58.402344 112.351562 C 59.339844 110.796875 58.84375 108.777344 57.289062 107.839844 C 57.140625 107.75 56.984375 107.671875 56.820312 107.605469 L 56.492188 91.234375 L 51.941406 90.214844 L 52.476562 109.652344 C 51.925781 111.378906 52.878906 113.226562 54.601562 113.777344 C 56.046875 114.238281 57.617188 113.648438 58.402344 112.351562 Z M 58.402344 112.351562 "/>
<path style=" stroke:none;fill-rule:nonzero;fill:rgb(47.450981%,46.27451%,19.215687%);fill-opacity:1;" d="M 61.566406 47.765625 C 61.566406 47.765625 55.992188 46.425781 54.210938 50.21875 C 52.425781 54.011719 52.273438 70.511719 52.273438 70.511719 L 51.3125 103.972656 L 58.382812 103.664062 L 64.019531 62.488281 Z M 61.566406 47.765625 "/>
<path style=" stroke:none;fill-rule:nonzero;fill:rgb(80.000001%,80.000001%,80.000001%);fill-opacity:1;" d="M 59.066406 117.289062 C 59.191406 117.445312 59.382812 117.539062 59.582031 117.535156 L 95.773438 117.535156 C 96.140625 117.535156 96.441406 117.238281 96.4375 116.871094 C 96.4375 116.824219 96.433594 116.777344 96.425781 116.734375 L 95.863281 114.0625 C 95.816406 113.84375 95.660156 113.660156 95.449219 113.578125 C 95.375 113.550781 95.292969 113.535156 95.210938 113.535156 L 60.140625 113.535156 C 60.0625 113.535156 59.980469 113.550781 59.90625 113.578125 C 59.695312 113.660156 59.539062 113.84375 59.492188 114.0625 L 58.929688 116.734375 C 58.886719 116.929688 58.9375 117.132812 59.066406 117.289062 Z M 59.066406 117.289062 "/>
<path style=" stroke:none;fill-rule:nonzero;fill:rgb(90.196079%,90.196079%,90.196079%);fill-opacity:1;" d="M 45.210938 57.519531 L 45.210938 99.289062 C 45.210938 100.398438 46.109375 101.296875 47.214844 101.296875 L 109.082031 101.296875 C 110.1875 101.296875 111.085938 100.398438 111.085938 99.289062 L 111.085938 57.519531 C 111.085938 56.414062 110.1875 55.515625 109.082031 55.515625 L 47.214844 55.515625 C 46.109375 55.515625 45.210938 56.414062 45.210938 57.519531 Z M 45.210938 57.519531 "/>
<path style=" stroke:none;fill-rule:nonzero;fill:rgb(80.000001%,80.000001%,80.000001%);fill-opacity:1;" d="M 85.882812 92.363281 C 85.8125 92.339844 85.734375 92.328125 85.65625 92.328125 L 71.183594 92.328125 C 70.757812 92.328125 70.410156 92.675781 70.410156 93.101562 L 70.410156 115.976562 L 86.425781 115.976562 L 86.425781 93.101562 C 86.425781 92.761719 86.207031 92.464844 85.882812 92.363281 Z M 80.078125 103.613281 C 80.074219 104.5625 79.304688 105.324219 78.359375 105.320312 C 77.421875 105.3125 76.664062 104.554688 76.660156 103.613281 L 76.660156 100.960938 C 76.667969 100.015625 77.441406 99.257812 78.386719 99.269531 C 79.316406 99.277344 80.070312 100.03125 80.078125 100.960938 Z M 80.078125 103.613281 "/>
</g>
</svg>
